<svg width="10" height="11" viewBox="0 0 10 11" fill="none" xmlns="http://www.w3.org/2000/svg">
<path d="M5 0.826172C4.0111 0.826172 3.0444 1.11942 2.22215 1.66882C1.39991 2.21823 0.759043 2.99912 0.380605 3.91275C0.00216645 4.82638 -0.0968502 5.83172 0.0960759 6.80162C0.289002 7.77153 0.765206 8.66244 1.46447 9.3617C2.16373 10.061 3.05465 10.5372 4.02455 10.7301C4.99445 10.923 5.99979 10.824 6.91342 10.4456C7.82705 10.0671 8.60794 9.42627 9.15735 8.60402C9.70676 7.78178 10 6.81508 10 5.82617C9.99847 4.50056 9.4712 3.22968 8.53385 2.29232C7.5965 1.35497 6.32561 0.827699 5 0.826172ZM5.57654 8.13348C5.57654 8.23548 5.53602 8.33331 5.46389 8.40544C5.39176 8.47757 5.29393 8.51809 5.19193 8.51809C5.08992 8.51809 4.99209 8.47757 4.91996 8.40544C4.84783 8.33331 4.80731 8.23548 4.80731 8.13348L4.80731 4.23737L4.25217 4.60732C4.21015 4.63594 4.16289 4.65594 4.1131 4.66617C4.06331 4.67641 4.01199 4.67667 3.9621 4.66695C3.91221 4.65723 3.86474 4.63772 3.82244 4.60954C3.78014 4.58136 3.74384 4.54508 3.71564 4.50279C3.68745 4.46049 3.66792 4.41303 3.65817 4.36315C3.64843 4.31326 3.64868 4.26194 3.65889 4.21215C3.6691 4.16236 3.68909 4.11508 3.71768 4.07306C3.74627 4.03104 3.78291 3.9951 3.82548 3.96732L4.97861 3.19848C5.03653 3.15987 5.10384 3.13771 5.17337 3.13435C5.2429 3.13099 5.31203 3.14657 5.37341 3.17941C5.43478 3.21226 5.48609 3.26114 5.52186 3.32085C5.55764 3.38057 5.57653 3.44887 5.57654 3.51848L5.57654 8.13348Z" fill="#00C2D0"/>
</svg>
