<svg width="31" height="31" viewBox="0 0 31 31" fill="none" xmlns="http://www.w3.org/2000/svg">
<path d="M15.5 0C12.4344 0 9.43763 0.909059 6.88867 2.61222C4.33971 4.31538 2.35303 6.73615 1.17987 9.5684C0.00671591 12.4007 -0.300236 15.5172 0.297835 18.5239C0.895906 21.5306 2.37214 24.2924 4.53985 26.4601C6.70756 28.6279 9.4694 30.1041 12.4761 30.7022C15.4828 31.3002 18.5993 30.9933 21.4316 29.8201C24.2638 28.647 26.6846 26.6603 28.3878 24.1113C30.0909 21.5624 31 18.5656 31 15.5C30.9953 11.3906 29.3607 7.45086 26.4549 4.54507C23.5491 1.63928 19.6094 0.00473343 15.5 0ZM19.0769 21.4603V21.4615C19.3931 21.4615 19.6964 21.5872 19.92 21.8108C20.1436 22.0344 20.2692 22.3376 20.2692 22.6538C20.2692 22.9701 20.1436 23.2733 19.92 23.4969C19.6964 23.7205 19.3931 23.8461 19.0769 23.8461C19.0748 23.8461 19.0732 23.845 19.071 23.845H11.9231C11.7017 23.845 11.4847 23.7833 11.2964 23.667C11.108 23.5506 10.9558 23.3842 10.8567 23.1862C10.7576 22.9882 10.7155 22.7666 10.7353 22.5461C10.755 22.3256 10.8357 22.1149 10.9683 21.9377L17.512 13.2085C17.5832 13.0939 17.6454 12.974 17.6983 12.8499C17.7594 12.7046 17.8062 12.5536 17.8381 12.3993C17.901 12.0813 17.9001 11.7541 17.8357 11.4365C17.8042 11.2856 17.7582 11.1382 17.6983 10.9962C17.6369 10.8533 17.5629 10.7161 17.4771 10.5863C17.3917 10.4624 17.295 10.3467 17.1883 10.2406C17.0811 10.1313 16.9633 10.033 16.8366 9.94712C16.7072 9.86041 16.57 9.78597 16.4267 9.72476C16.2833 9.66434 16.1344 9.61793 15.982 9.58615C15.6637 9.52329 15.3363 9.52329 15.018 9.58615C14.714 9.6494 14.4253 9.77124 14.1679 9.94489C14.0417 10.0296 13.924 10.1263 13.8163 10.2336C13.7052 10.3456 13.6046 10.4675 13.5159 10.598C13.4327 10.724 13.361 10.8573 13.3017 10.9962C13.2405 11.1402 13.1516 11.2708 13.04 11.3805C12.9283 11.4902 12.7962 11.5768 12.6511 11.6354C12.506 11.694 12.3508 11.7234 12.1943 11.722C12.0378 11.7207 11.8831 11.6885 11.7391 11.6273C11.5951 11.5661 11.4645 11.4772 11.3548 11.3656C11.2451 11.254 11.1585 11.1218 11.0999 10.9767C11.0413 10.8316 11.0119 10.6764 11.0133 10.5199C11.0146 10.3634 11.0468 10.2088 11.108 10.0647C11.2264 9.78253 11.3723 9.51266 11.5435 9.25901C11.7163 9.00394 11.9128 8.76576 12.1304 8.54765C12.5652 8.11559 13.078 7.76987 13.6416 7.52883C14.229 7.28115 14.8599 7.15335 15.4974 7.15294C16.1348 7.15253 16.7659 7.27952 17.3536 7.52644C17.6392 7.64728 17.9123 7.79589 18.1688 7.97013C18.423 8.14078 18.6594 8.33656 18.8744 8.55451C19.3097 8.98604 19.6555 9.49925 19.892 10.0647C20.1422 10.6523 20.2705 11.2845 20.2692 11.9231C20.2696 12.2437 20.2376 12.5636 20.1738 12.8778C20.1095 13.1875 20.0151 13.4901 19.892 13.7814C19.7736 14.0636 19.6277 14.3335 19.4565 14.5871L14.3077 21.4615L19.0769 21.4603Z" fill="#00C2D0"/>
</svg>
