<svg xmlns="http://www.w3.org/2000/svg" viewBox="0 0 100 100"><defs><style>.cls-1{fill:#e7005d;}.cls-2{fill:#ffe12e;}.cls-3{fill:#00c2d0;}.cls-4{fill:#130523;}</style></defs><title>favicon</title><g id="Layer_2" data-name="Layer 2"><path class="cls-1" d="M44,65.46V55.33l25.52.31v28c3.28,0,6.56,0,9.82,0l-.57-58.09H68.4c-.15,5.91-.15,10.49-.15,10.49C65,36,61.71,36,58.43,36,58.34,41.81,58.21,46,58.21,46q-12.75-.18-25.5,0V17.56H20.78l1,56.9c3.22.41,7.88.59,12.12.66V65.41Z"/></g><g id="Layer_3" data-name="Layer 3"><path class="cls-2" d="M68.4,25.58H58.5c0,3.67,0,7.25-.08,10.38,3.28,0,6.55,0,9.83.11C68.25,36.07,68.25,31.49,68.4,25.58Z"/><path class="cls-2" d="M79.41,94l-.11-10.3c-3.26,0-6.54,0-9.82,0v-28L44,55.33V65.46l15.47.18V93.69Z"/><path class="cls-2" d="M20.78,17.56H10.55s.56,51.2,1.24,75.83l22.14.08V75.12c-4.24-.07-8.9-.25-12.12-.66Z"/></g><g id="Layer_4" data-name="Layer 4"><path class="cls-3" d="M42.8,35.89V7.52H20.66l.18,10H32.7V46q12.73-.18,25.5,0s.32-9.59.29-10.15Z"/><path class="cls-3" d="M89.11,6H68.55v.3c0,5.41-.08,13.08-.15,19.29H78.73L79.3,83.7H89.45Z"/><path class="cls-3" d="M33.93,75.1c5.38.09,10,0,10,0V65.41h-10Z"/></g><g id="Layer_6" data-name="Layer 6"><path class="cls-4" d="M91.22,6a2.08,2.08,0,0,0-2.08-2.08H68.55A2.12,2.12,0,0,0,66.47,6c0,5.84-.06,11.68-.13,17.52H58.5a2.09,2.09,0,0,0-2.07,2.07c0,1.8,0,3.59,0,5.39,0,0,0,.08,0,.12,0,.91,0,1.82,0,2.73H44.83V7.52a2.09,2.09,0,0,0-2.07-2.07H20.62a2.09,2.09,0,0,0-2.08,2.07l.14,8H10.55a2.12,2.12,0,0,0-2.07,2.08C8.76,42.84,9,68.12,9.71,93.39a2.1,2.1,0,0,0,2.08,2.07l22.14.09A2.1,2.1,0,0,0,36,93.47V77.17h8A2.12,2.12,0,0,0,46,75.1V67.6l11.31.16v26a2.12,2.12,0,0,0,2.08,2.08l20,.28A2.12,2.12,0,0,0,81.49,94l-.09-8.23h8a2.09,2.09,0,0,0,2.07-2.08ZM59.43,63.64,46,63.48v-6c7.12,0,14.23.13,21.36.23,0,8.65-.06,17.3,0,26,0,0,0,0,0,0s0,0,0,0a2.08,2.08,0,0,0,2.08,2.07h7.77l.06,6.12-15.8-.22v-26A2.12,2.12,0,0,0,59.43,63.64ZM36,67.42l5.88,0V73H36Zm-2.07-4.17a2.08,2.08,0,0,0-2.08,2.08s0,0,0,0,0,0,0,0V73c-2.67-.07-5.34-.2-8-.42l-1-52.94h7.73V46a2.1,2.1,0,0,0,2.08,2.07q12.73-.15,25.5,0A2.09,2.09,0,0,0,60.27,46c.09-2.67.15-5.33.19-8,2.6,0,5.19,0,7.79.11a1.88,1.88,0,0,0,1.59-.78,2,2,0,0,0,.48-1.3c0-2.81.06-5.59.12-8.41h6.24l.53,54H71.55v-26a2.1,2.1,0,0,0-2.07-2.08c-8.51-.11-17-.22-25.52-.27a2.1,2.1,0,0,0-2.08,2.07v8ZM18.74,19.63l1,54.83a1.92,1.92,0,0,0,1.42,1.89,2,2,0,0,0,.66.18c3.33.36,6.68.52,10,.61V91.39l-18-.07c-.62-23.89-.89-47.79-1.16-71.69ZM66.17,34l-5.65-.07v0c0-1,0-1.91,0-2.86h0c0-1.12,0-2.24,0-3.36h5.7Q66.23,30.8,66.17,34ZM81.36,81.63l-.55-56a2.1,2.1,0,0,0-2.08-2.07H70.45c0-5.15.1-10.3.12-15.45h16.5l.29,73.57ZM56.29,38q-.06,3-.15,6-10.7-.15-21.41,0V18a2.32,2.32,0,0,0,.06-.46,2.08,2.08,0,0,0-2.08-2.08H22.82l-.09-5.81h18V36A2.12,2.12,0,0,0,42.76,38Z"/></g></svg>