<svg id="Layer_1" data-name="Layer 1" xmlns="http://www.w3.org/2000/svg" viewBox="0 0 100 100"><defs><style>.cls-1{fill:#3d3d3d;}.cls-2{fill:#130523;}.cls-3{fill:#9b9b9b;}.cls-4{fill:#ccc;}</style></defs><title>logo</title><path class="cls-1" d="M70.5,31.5,71,80.92l-14.44-.2V60.47s-12.5-.16-18.43-.19V80.56l-16-.06c-.49-17.79-.89-54.8-.89-54.8h16V46.28q9.21-.12,18.43,0s.22-7.2.22-14.83Z"/><path class="cls-2" d="M69,31.5l.49,49.42,1.5-1.5-14.44-.2,1.5,1.5c0-6.75,0-13.5,0-20.25a1.54,1.54,0,0,0-1.5-1.5c-6.14-.07-12.29-.15-18.43-.19a1.51,1.51,0,0,0-1.5,1.5V80.56l1.5-1.5-16-.06,1.5,1.5c-.49-18.26-.69-36.53-.89-54.8l-1.5,1.5h16l-1.5-1.5V46.28a1.52,1.52,0,0,0,1.5,1.5q9.21-.11,18.43,0a1.52,1.52,0,0,0,1.5-1.5c.15-4.94.21-9.89.22-14.83L55.88,33H70.5a1.5,1.5,0,0,0,0-3H55.88a1.53,1.53,0,0,0-1.5,1.5c0,4.94-.07,9.89-.22,14.83l1.5-1.5q-9.21-.15-18.43,0l1.5,1.5V25.7a1.52,1.52,0,0,0-1.5-1.5h-16a1.53,1.53,0,0,0-1.5,1.5c.2,18.27.4,36.54.89,54.8a1.52,1.52,0,0,0,1.5,1.5l16,.06a1.52,1.52,0,0,0,1.5-1.5V60.28l-1.5,1.5c6.14,0,12.29.12,18.43.19l-1.5-1.5c0,6.75,0,13.5,0,20.25a1.53,1.53,0,0,0,1.5,1.5l14.44.2a1.52,1.52,0,0,0,1.5-1.5L72,31.5A1.5,1.5,0,0,0,69,31.5Z"/><path class="cls-3" d="M62.92,39.08s0-3.31.11-7.58H55.88c0,2.65,0,5.24-.06,7.5C58.19,39,60.55,39,62.92,39.08Z"/><path class="cls-2" d="M64.42,39.08c0-2.53.07-5,.11-7.58A1.52,1.52,0,0,0,63,30H55.88a1.52,1.52,0,0,0-1.5,1.5q0,3.75-.06,7.5a1.52,1.52,0,0,0,1.5,1.5c2.37,0,4.73,0,7.1.08,1.93,0,1.93-3,0-3-2.37,0-4.73-.06-7.1-.08l1.5,1.5q.06-3.75.06-7.5L55.88,33H63l-1.5-1.5c0,2.53-.07,5-.11,7.58C61.39,41,64.39,41,64.42,39.08Z"/><path class="cls-3" d="M63.81,73.46V53.22S51.3,53.06,45.37,53v7.32l11.18.13V80.72l14.44.2-.08-7.44C68.55,73.49,66.18,73.49,63.81,73.46Z"/><path class="cls-2" d="M65.31,73.46c0-6.75,0-13.49,0-20.24a1.52,1.52,0,0,0-1.5-1.5c-6.15-.08-12.29-.16-18.44-.2a1.52,1.52,0,0,0-1.5,1.5v7.32a1.52,1.52,0,0,0,1.5,1.5L56.55,62l-1.5-1.5c0,6.75,0,13.5,0,20.25a1.53,1.53,0,0,0,1.5,1.5l14.44.2a1.52,1.52,0,0,0,1.5-1.5l-.08-7.44a1.52,1.52,0,0,0-1.5-1.5c-2.37,0-4.73,0-7.1,0a1.5,1.5,0,0,0,0,3c2.37,0,4.73,0,7.1,0l-1.5-1.5.08,7.44,1.5-1.5-14.44-.2,1.5,1.5c0-6.75,0-13.5,0-20.25a1.53,1.53,0,0,0-1.5-1.5l-11.18-.13,1.5,1.5V53l-1.5,1.5c6.15,0,12.29.12,18.44.2l-1.5-1.5c0,6.75-.05,13.49,0,20.24A1.5,1.5,0,0,0,65.31,73.46Z"/><path class="cls-3" d="M29.36,66.82,28.62,25.7H21.23s.4,37,.89,54.8l16,.06V67.3C35.06,67.25,31.69,67.12,29.36,66.82Z"/><path class="cls-2" d="M30.86,66.82,30.12,25.7a1.52,1.52,0,0,0-1.5-1.5H21.23a1.53,1.53,0,0,0-1.5,1.5c.2,18.27.4,36.54.89,54.8a1.52,1.52,0,0,0,1.5,1.5l16,.06a1.52,1.52,0,0,0,1.5-1.5V67.3a1.52,1.52,0,0,0-1.5-1.5c-2.93-.06-5.85-.17-8.76-.48-1.92-.21-1.91,2.8,0,3,2.91.31,5.83.42,8.76.48l-1.5-1.5V80.56l1.5-1.5-16-.06,1.5,1.5c-.49-18.26-.69-36.53-.89-54.8l-1.5,1.5h7.39l-1.5-1.5.74,41.12C27.89,68.75,30.89,68.75,30.86,66.82Z"/><path class="cls-4" d="M55.87,35.22c0-.49,0-1,0-1.49C55.87,34.23,55.87,34.73,55.87,35.22Z"/><path class="cls-2" d="M57.37,35.22c0-.5,0-1,0-1.49h-3c0,.5,0,1,0,1.49a1.5,1.5,0,0,0,3,0c0-.5,0-1,0-1.49a1.5,1.5,0,0,0-3,0c0,.5,0,1,0,1.49a1.5,1.5,0,0,0,3,0Z"/><path class="cls-4" d="M54.23,60.45h0Z"/><path class="cls-2" d="M54.23,62h.67a1.5,1.5,0,0,0,1.5-1.5A1.52,1.52,0,0,0,54.9,59h-.67a1.51,1.51,0,0,0-1.5,1.5,1.54,1.54,0,0,0,1.5,1.5h.67V59h-.67a1.51,1.51,0,0,0-1.5,1.5A1.54,1.54,0,0,0,54.23,62Z"/><path class="cls-4" d="M55.88,33.29v0Z"/><path class="cls-2" d="M57.38,33.29V31.5h-3v1.79a1.5,1.5,0,0,0,3,0V31.5a1.5,1.5,0,1,0-3,0v1.79a1.5,1.5,0,0,0,3,0Z"/><path class="cls-4" d="M55.06,60.46h0Z"/><path class="cls-2" d="M55.06,62h.45a1.5,1.5,0,0,0,0-3h-.45a1.5,1.5,0,0,0-1.5,1.5,1.52,1.52,0,0,0,1.5,1.5h.45V59h-.45a1.5,1.5,0,0,0-1.5,1.5A1.52,1.52,0,0,0,55.06,62Z"/><path class="cls-4" d="M37.23,25.7V46.28q9.21-.12,18.43,0s.15-4.88.21-10.85c0,1.23,0,2.41,0,3.52-3.78,0-7.56,0-11.34,0V18.45h-16l.13,7.25Z"/><path class="cls-2" d="M35.73,25.7V46.28a1.52,1.52,0,0,0,1.5,1.5q9.21-.11,18.43,0a1.52,1.52,0,0,0,1.5-1.5c.11-3.62.17-7.24.21-10.85h-3c0,1.17,0,2.35,0,3.52l1.5-1.5c-3.78,0-7.56,0-11.34,0L46,39V18.45a1.52,1.52,0,0,0-1.5-1.5h-16a1.52,1.52,0,0,0-1.5,1.5l.13,7.25a1.52,1.52,0,0,0,1.5,1.5h8.61a1.5,1.5,0,0,0,0-3H28.62l1.5,1.5L30,18.45,28.49,20h16L43,18.45V39a1.52,1.52,0,0,0,1.5,1.5c3.78,0,7.56,0,11.34,0a1.52,1.52,0,0,0,1.5-1.5c0-1.17,0-2.35,0-3.52a1.5,1.5,0,0,0-3,0c0,3.61-.1,7.23-.21,10.85l1.5-1.5q-9.21-.15-18.43,0l1.5,1.5V25.7A1.5,1.5,0,0,0,35.73,25.7Z"/><path class="cls-4" d="M56.07,60.47h0Z"/><path class="cls-2" d="M56.07,59h-.2v3h.2a1.5,1.5,0,0,0,0-3h-.2a1.5,1.5,0,0,0-1.5,1.5,1.53,1.53,0,0,0,1.5,1.5h.2a1.5,1.5,0,0,0,0-3Z"/><path class="cls-4" d="M56.48,60.47h0Z"/><path class="cls-2" d="M56.48,62h.07a1.51,1.51,0,0,0,1.5-1.5,1.54,1.54,0,0,0-1.5-1.5h-.07a1.5,1.5,0,1,0,0,3h.07a1.51,1.51,0,0,0,1.5-1.5,1.54,1.54,0,0,0-1.5-1.5h-.07a1.5,1.5,0,1,0,0,3Z"/><path class="cls-4" d="M48.57,60.38l5,.06Z"/><path class="cls-2" d="M48.57,61.88l5,.06v-3l-5-.06a1.5,1.5,0,0,0,0,3l5,.06a1.5,1.5,0,0,0,0-3l-5-.06A1.5,1.5,0,0,0,48.57,61.88Z"/><path class="cls-2" d="M36.62,71.67v.82a1.5,1.5,0,0,0,3,0v-.82a1.5,1.5,0,0,0-3,0v.82a1.5,1.5,0,0,0,3,0v-.82a1.5,1.5,0,0,0-3,0Z"/><path class="cls-4" d="M78,17.34H63.14v.22c0,3.91-.06,9.45-.11,13.94H70.5l.41,42c2.45,0,4.89,0,7.33,0Z"/><path class="cls-2" d="M78,15.84H63.14a1.52,1.52,0,0,0-1.5,1.5c0,4.72-.06,9.44-.11,14.16A1.52,1.52,0,0,0,63,33H70.5L69,31.5l.41,42a1.53,1.53,0,0,0,1.5,1.5q3.68,0,7.33,0a1.51,1.51,0,0,0,1.5-1.5l-.22-56.16a1.5,1.5,0,0,0-3,0l.22,56.16,1.5-1.5q-3.66,0-7.33,0l1.5,1.5L72,31.5A1.52,1.52,0,0,0,70.5,30H63l1.5,1.5c0-4.72.11-9.44.11-14.16l-1.5,1.5H78A1.5,1.5,0,0,0,78,15.84Z"/><path class="cls-4" d="M38.12,60.28v7c3.89.07,7.25,0,7.25,0v-7Z"/><path class="cls-2" d="M36.62,60.28v7a1.52,1.52,0,0,0,1.5,1.5c2.41,0,4.83,0,7.25,0a1.53,1.53,0,0,0,1.5-1.5v-7a1.53,1.53,0,0,0-1.5-1.5l-7.25-.06a1.5,1.5,0,0,0,0,3l7.25.06-1.5-1.5v7l1.5-1.5c-2.42,0-4.84,0-7.25,0l1.5,1.5v-7A1.5,1.5,0,0,0,36.62,60.28Z"/><path class="cls-4" d="M45.51,60.34h0Z"/><path class="cls-2" d="M45.51,61.84h.74v-3h-.74a1.5,1.5,0,1,0,0,3h.74a1.5,1.5,0,0,0,0-3h-.74a1.5,1.5,0,1,0,0,3Z"/><path class="cls-4" d="M46.47,60.35l1.78,0Z"/><path class="cls-2" d="M46.47,61.85l1.78,0a1.5,1.5,0,0,0,0-3l-1.78,0a1.5,1.5,0,0,0,0,3l1.78,0v-3l-1.78,0a1.5,1.5,0,0,0,0,3Z"/></svg>