<svg width="1440" height="3608" viewBox="0 0 1440 3608" fill="none" xmlns="http://www.w3.org/2000/svg">
<g filter="url(#filter0_f)">
<mask id="mask0" mask-type="alpha" maskUnits="userSpaceOnUse" x="0" y="0" width="1440" height="3608">
<rect width="1440" height="3608" fill="#C4C4C4"/>
</mask>
<g mask="url(#mask0)">
<g filter="url(#filter1_f)">
<path d="M-103.727 1382.15V221.768L764.757 221.919C818.429 221.919 862.101 260.433 862.101 307.764C862.101 330.224 852.358 351.478 834.581 367.607C816.89 383.661 793.131 392.931 767.749 393.609H499.905C450.934 393.609 411.022 428.731 411.022 471.993C411.022 492.719 420.082 512.24 436.576 526.937C452.985 541.634 474.949 549.924 498.367 550.301L502.554 550.377V551.356H597.59C651.261 551.356 694.933 589.87 694.933 637.201C694.933 684.533 651.261 723.046 597.59 723.046H502.64V723.423H498.367C474.778 723.574 452.643 731.789 436.063 746.562C419.398 761.334 410.253 780.93 410.253 801.732C410.253 822.533 419.398 842.129 436.063 856.902C452.643 871.674 474.864 879.889 498.367 880.04H502.64V881.095H533.919C587.591 881.095 631.263 919.608 631.263 966.94C631.263 1014.27 587.591 1052.79 533.919 1052.79H502.64V1053.54H498.367C449.567 1053.69 409.826 1088.81 409.826 1131.85C409.826 1175.03 449.652 1210.16 498.623 1210.16H883.809V1210.31C883.894 1210.31 883.894 1210.31 883.98 1210.31V1210.16H884.065C884.578 1210.16 885.091 1210.23 885.603 1210.38C934.66 1213.47 973.717 1248.74 975.853 1292.23H976.708V1296C976.708 1343.33 933.036 1381.85 879.365 1381.85H-103.727V1382.15Z" fill="url(#paint0_linear)"/>
<path d="M-99.4536 225.537L764.757 225.688C816.206 225.688 857.827 262.468 857.827 307.764C857.827 352.232 817.659 388.484 767.578 389.841H499.905C448.455 389.841 406.834 426.621 406.834 471.918C406.834 516.837 447.686 553.24 498.452 553.994V555.049H597.761C649.21 555.049 690.831 591.829 690.831 637.126C690.831 682.498 649.125 719.203 597.761 719.203H498.366V719.655C447.259 720.032 405.98 756.586 405.98 801.731C405.98 846.877 447.259 883.507 498.366 883.808V884.863H533.919C585.368 884.863 626.989 921.643 626.989 966.94C626.989 1012.31 585.283 1049.02 533.919 1049.02H498.366V1049.77C447.088 1049.92 405.553 1086.63 405.553 1131.85C405.553 1177.22 447.259 1213.92 498.623 1213.92H883.808C883.637 1213.92 884.236 1213.92 884.065 1213.92H879.022H878.51C929.959 1213.92 971.58 1250.7 971.58 1296H972.264C972.264 1341.37 930.557 1378.08 879.193 1378.08H-99.4536V225.537ZM-108 218V225.537V1378.38V1385.92H-99.4536H879.364C906.542 1385.92 932.01 1376.57 951.239 1359.69C970.469 1342.73 980.981 1320.27 980.981 1296.3V1288.76H979.87C977.904 1267.66 967.648 1248.07 950.47 1232.92C933.121 1217.62 910.644 1208.5 886.372 1206.91C885.689 1206.76 884.919 1206.69 884.15 1206.61H884.065C884.749 1206.61 885.347 1206.69 886.03 1206.84C885.261 1206.76 884.578 1206.76 883.808 1206.69V1206.54H498.708C452.045 1206.54 414.184 1173.07 414.184 1132C414.184 1112.1 422.987 1093.41 438.883 1079.39C454.78 1065.3 475.975 1057.53 498.452 1057.46H506.998V1056.7H534.005C561.182 1056.7 586.65 1047.36 605.88 1030.48C625.109 1013.59 635.621 991.058 635.621 967.091C635.621 943.123 625.024 920.663 605.88 903.705C586.65 886.747 561.182 877.477 534.005 877.477H506.998V876.497L498.537 876.422C476.06 876.271 455.036 868.433 439.225 854.414C423.414 840.32 414.697 821.704 414.697 801.882C414.697 782.06 423.414 763.444 439.225 749.35C455.036 735.332 476.146 727.493 498.537 727.342L506.998 727.267V726.89H597.761C624.938 726.89 650.407 717.545 669.636 700.662C688.865 683.704 699.377 661.244 699.377 637.277C699.377 613.309 688.78 590.85 669.636 573.892C650.407 556.934 624.938 547.663 597.761 547.663H506.913V546.608L498.537 546.457C476.231 546.156 455.378 538.242 439.653 524.223C424.013 510.205 415.381 491.589 415.381 471.918C415.381 430.766 453.327 397.378 499.905 397.378H767.663H767.834H768.005C794.499 396.699 819.283 387.052 837.829 370.245C856.374 353.438 866.63 331.279 866.63 307.764C866.63 283.797 856.033 261.337 836.889 244.379C817.659 227.421 792.191 218.151 765.014 218.151L-99.4536 218H-108Z" fill="#E7005D"/>
</g>
<g filter="url(#filter2_f)">
<path d="M815.011 2370.31C762.707 2370.31 719.975 2333.83 717.753 2288.23H717.667L717.582 2284.46C717.582 2238.79 758.263 2201.33 809.37 2198.77C809.883 2198.69 810.481 2198.62 811.165 2198.62H1142.85C1191.82 2198.62 1231.65 2163.5 1231.65 2120.31C1231.65 2077.27 1191.91 2042.15 1143.11 2042H1138.83V2041.25H1107.55C1053.88 2041.25 1010.21 2002.73 1010.21 1955.4C1010.21 1908.07 1053.88 1869.56 1107.55 1869.56H1138.83V1868.5H1143.11C1166.69 1868.35 1188.83 1860.14 1205.41 1845.36C1222.08 1830.59 1231.22 1811 1231.22 1790.19C1231.22 1769.39 1222.08 1749.8 1205.41 1735.02C1188.83 1720.25 1166.61 1712.04 1143.11 1711.89H1138.83V1711.51H1043.8C990.126 1711.51 946.454 1672.99 946.454 1625.66C946.454 1578.33 990.126 1539.82 1043.8 1539.82H1138.92V1538.84L1143.11 1538.76C1166.52 1538.46 1188.49 1530.17 1204.9 1515.4C1221.39 1500.63 1230.45 1481.11 1230.45 1460.45C1230.45 1417.27 1190.62 1382.15 1141.65 1382.15H873.81C848.427 1381.47 824.668 1372.27 806.977 1356.14C789.201 1340.02 779.458 1318.76 779.458 1296.3C779.458 1248.97 823.13 1210.46 876.801 1210.46L1545.73 1211.81V2370.68H815.011V2370.31Z" fill="url(#paint1_linear)"/>
<path d="M876.801 1213.92L1541.45 1215.28V2366.61H815.011C763.561 2366.61 721.94 2329.83 721.94 2284.54H721.855C721.855 2239.17 763.647 2202.46 815.011 2202.46H810.225C810.054 2202.46 1142.94 2202.46 1142.94 2202.46C1194.38 2202.46 1236.01 2165.68 1236.01 2120.38C1236.01 2075.16 1194.47 2038.46 1143.19 2038.31V2037.55H1107.64C1056.19 2037.55 1014.57 2000.77 1014.57 1955.48C1014.57 1910.11 1056.28 1873.4 1107.64 1873.4H1143.19V1872.35C1194.3 1871.97 1235.58 1835.41 1235.58 1790.27C1235.58 1745.12 1194.3 1708.49 1143.19 1708.19V1707.74H1043.88C992.434 1707.74 950.813 1670.96 950.813 1625.66C950.813 1580.29 992.519 1543.59 1043.88 1543.59H1143.19V1542.53C1193.87 1541.78 1234.81 1505.37 1234.81 1460.45C1234.81 1415.08 1193.1 1378.38 1141.74 1378.38H873.981C823.899 1377.02 783.731 1340.84 783.731 1296.3C783.645 1250.7 825.352 1213.92 876.801 1213.92ZM876.801 1206.39C849.624 1206.39 824.07 1215.73 804.926 1232.62C785.696 1249.57 775.184 1272.03 775.184 1296C775.184 1319.44 785.44 1341.67 803.986 1358.48C822.531 1375.29 847.316 1384.86 873.81 1385.61H873.981H874.152H1141.91C1188.57 1385.61 1226.43 1419.08 1226.43 1460.15C1226.43 1479.82 1217.8 1498.44 1202.16 1512.46C1186.52 1526.48 1165.58 1534.39 1143.28 1534.69L1134.9 1534.84V1535.75H1044.14C1016.96 1535.75 991.494 1545.09 972.264 1561.98C953.035 1578.93 942.523 1601.39 942.523 1625.36C942.523 1649.33 953.12 1671.79 972.264 1688.75C991.494 1705.71 1016.96 1714.98 1044.14 1714.98H1134.65V1715.35L1143.11 1715.43C1165.58 1715.58 1186.61 1723.42 1202.42 1737.44C1218.23 1751.53 1226.95 1770.15 1226.95 1789.97C1226.95 1809.79 1218.23 1828.41 1202.42 1842.5C1186.61 1856.52 1165.5 1864.36 1143.11 1864.51L1134.65 1864.58V1865.56H1107.64C1080.46 1865.56 1054.99 1874.91 1035.76 1891.79C1016.53 1908.75 1006.02 1931.21 1006.02 1955.18C1006.02 1979.14 1016.62 2001.6 1035.76 2018.56C1054.99 2035.52 1080.46 2044.79 1107.64 2044.79H1134.65V2045.54H1143.19C1165.75 2045.62 1186.86 2053.38 1202.76 2067.48C1218.66 2081.57 1227.46 2100.26 1227.46 2120.08C1227.46 2161.23 1189.51 2194.62 1142.94 2194.62H976.623H862.272H824.583H813.985H811.165H810.481C809.712 2194.62 809.028 2194.7 808.344 2194.85C755.357 2197.94 713.309 2236.83 713.309 2284.31V2291.85H713.736C715.702 2312.95 725.957 2332.55 743.136 2347.7C762.365 2364.65 787.833 2373.93 815.011 2373.93H1541.45H1550V2366.39V1215.28V1207.74H1541.45L876.801 1206.39Z" fill="url(#paint2_linear)"/>
</g>
<g filter="url(#filter3_f)">
<path d="M-103.727 3359.22V2200.35L787.234 2198.99C840.906 2198.99 884.578 2237.51 884.578 2284.84C884.578 2307.3 874.835 2328.55 857.058 2344.68C839.367 2360.74 815.608 2370.01 790.226 2370.68H522.382C473.411 2370.68 433.585 2405.81 433.585 2448.99C433.585 2469.72 442.644 2489.24 459.139 2503.94C475.548 2518.63 497.512 2526.92 520.929 2527.3L525.117 2527.38V2528.36H620.153C673.824 2528.36 717.496 2566.87 717.496 2614.2C717.496 2661.53 673.824 2700.05 620.153 2700.05H525.031V2700.42H520.758C497.17 2700.57 475.035 2708.79 458.455 2723.56C441.789 2738.33 432.645 2757.93 432.645 2778.73C432.645 2799.53 441.789 2819.13 458.455 2833.9C475.035 2848.67 497.256 2856.89 520.758 2857.04H525.031V2858.09H556.311C609.982 2858.09 653.654 2896.61 653.654 2943.94C653.654 2991.27 610.068 3030.01 556.311 3030.01H525.031V3030.76H520.758C471.958 3030.92 432.217 3066.04 432.217 3109.07C432.217 3152.26 472.044 3187.38 521.014 3187.38H573.404V3187.53C624.682 3189.94 665.534 3227.48 665.534 3273.3C665.534 3320.63 621.862 3359.15 568.191 3359.15H-103.727V3359.22Z" fill="url(#paint3_linear)"/>
<path d="M787.234 2202.76C838.684 2202.76 880.304 2239.54 880.304 2284.84C880.304 2329.31 840.136 2365.56 790.055 2366.92H522.296C470.847 2366.92 429.226 2403.7 429.226 2448.99C429.226 2493.91 470.078 2530.32 520.843 2531.07V2532.12H620.152C671.602 2532.12 713.223 2568.9 713.223 2614.2C713.223 2659.57 671.516 2696.28 620.152 2696.28H520.758V2696.73C469.65 2697.11 428.371 2733.66 428.371 2778.81C428.371 2823.95 469.65 2860.58 520.758 2860.88V2861.94H556.311C607.76 2861.94 649.381 2898.72 649.381 2944.01C649.381 2989.31 607.76 3026.24 556.311 3026.24H520.758V3027C469.48 3027.15 427.944 3063.85 427.944 3109.07C427.944 3154.44 469.65 3191.15 521.014 3191.15H573.404C573.233 3191.15 573.147 3191.15 572.976 3191.15H568.019H568.19C619.64 3191.15 661.26 3227.93 661.26 3273.23C661.26 3318.6 619.554 3355.3 568.19 3355.3H-99.4536V2204.12L787.234 2202.76ZM787.234 2195.23L-99.4536 2196.58H-108V2204.12V3355.45V3362.99H-99.4536H568.276C595.453 3362.99 620.922 3353.64 640.151 3336.76C659.38 3319.8 669.892 3297.34 669.892 3273.38C669.892 3249.41 659.295 3226.95 640.151 3209.99C622.204 3194.16 598.701 3184.97 573.575 3183.84V3183.69H521.185C474.522 3183.69 436.661 3150.22 436.661 3109.15C436.661 3089.25 445.464 3070.56 461.36 3056.54C477.257 3042.45 498.452 3034.68 520.929 3034.61H529.475V3033.85H556.482C583.659 3033.85 609.128 3024.51 628.357 3007.63C647.586 2990.67 658.098 2968.21 658.098 2944.24C658.098 2920.27 647.501 2897.81 628.357 2880.86C609.128 2863.9 583.659 2854.63 556.482 2854.63H529.475V2853.65L521.014 2853.57C498.537 2853.42 477.513 2845.58 461.702 2831.56C445.891 2817.47 437.174 2798.85 437.174 2779.03C437.174 2759.21 445.891 2740.59 461.702 2726.5C477.513 2712.48 498.623 2704.64 521.014 2704.49L529.475 2704.42V2704.04H620.238C647.415 2704.04 672.884 2694.69 692.113 2677.81C711.342 2660.85 721.854 2638.39 721.854 2614.43C721.854 2590.46 711.257 2568 692.113 2551.04C672.884 2534.08 647.415 2524.81 620.238 2524.81H529.304V2523.91L520.929 2523.76C498.623 2523.46 477.77 2515.54 462.044 2501.52C446.404 2487.51 437.772 2468.89 437.772 2449.22C437.772 2408.07 475.718 2374.68 522.296 2374.68H790.055H790.226H790.396C816.89 2374 841.675 2364.35 860.22 2347.55C878.766 2330.74 889.022 2308.58 889.022 2285.07C889.022 2261.1 878.424 2238.64 859.28 2221.68C839.88 2204.57 814.326 2195.23 787.234 2195.23Z" fill="#00C2D0"/>
</g>
</g>
</g>
<mask id="mask1" mask-type="alpha" maskUnits="userSpaceOnUse" x="0" y="0" width="1440" height="3608">
<rect width="1440" height="3608" fill="#C4C4C4"/>
</mask>
<g mask="url(#mask1)">
<mask id="path-9-inside-1" fill="white">
<path fill-rule="evenodd" clip-rule="evenodd" d="M-15 225.537V218H-7.41237L760.076 218.151C784.205 218.151 806.816 227.421 823.888 244.379C840.884 261.337 850.293 283.797 850.293 307.764C850.293 331.279 841.188 353.438 824.722 370.245C808.257 387.052 786.253 396.699 762.732 397.378H762.58H762.428H524.708C483.355 397.378 449.666 430.766 449.666 471.918C449.666 491.589 457.33 510.205 471.215 524.223C485.176 538.242 503.69 546.156 523.494 546.457L530.93 546.608V547.663H611.586C635.715 547.663 658.326 556.934 675.398 573.892C692.394 590.85 701.803 613.309 701.803 637.277C701.803 661.244 692.47 683.704 675.398 700.662C658.326 717.545 635.715 726.89 611.586 726.89H531.005V727.267L523.494 727.342C503.614 727.493 484.873 735.332 470.836 749.35C456.799 763.444 449.059 782.06 449.059 801.882C449.059 821.704 456.799 840.32 470.836 854.414C484.873 868.433 503.538 876.271 523.494 876.422L531.005 876.497V877.477H554.982C579.111 877.477 601.722 886.747 618.794 903.706C635.791 920.663 645.199 943.123 645.199 967.091C645.199 991.058 635.867 1013.59 618.794 1030.48C601.722 1047.36 579.111 1056.7 554.982 1056.7H531.005V1057.46H523.418C503.462 1057.53 484.645 1065.3 470.532 1079.39C456.419 1093.41 448.604 1112.1 448.604 1132C448.604 1173.07 482.217 1206.54 523.646 1206.54H854.029C855.785 1206.44 857.55 1206.39 859.323 1206.39L1449.41 1207.74H1457V1215.28V2366.39V2373.93H1449.41H804.464C801.319 2373.93 798.199 2373.77 795.114 2373.46C791.011 2374.15 786.835 2374.56 782.611 2374.68H782.459H782.308H544.587C503.235 2374.68 469.546 2408.07 469.546 2449.22C469.546 2468.89 477.209 2487.51 491.095 2501.52C505.056 2515.54 523.57 2523.46 543.373 2523.76L550.809 2523.91V2524.81H631.542C655.67 2524.81 678.281 2534.08 695.354 2551.04C712.35 2568 721.758 2590.46 721.758 2614.43C721.758 2638.39 712.426 2660.85 695.354 2677.81C678.281 2694.69 655.67 2704.04 631.542 2704.04H550.961V2704.42L543.449 2704.49C523.57 2704.64 504.828 2712.48 490.791 2726.5C476.754 2740.59 469.015 2759.21 469.015 2779.03C469.015 2798.85 476.754 2817.47 490.791 2831.56C504.828 2845.58 523.494 2853.42 543.449 2853.57L550.961 2853.65V2854.63H574.938C599.067 2854.63 621.678 2863.9 638.75 2880.86C655.746 2897.81 665.155 2920.27 665.155 2944.24C665.155 2968.21 655.822 2990.67 638.75 3007.63C621.678 3024.51 599.067 3033.85 574.938 3033.85H550.961V3034.61H543.373C523.418 3034.68 504.601 3042.45 490.488 3056.54C476.375 3070.56 468.559 3089.25 468.559 3109.15C468.559 3150.22 502.173 3183.69 543.601 3183.69H590.113V3183.84C612.421 3184.97 633.287 3194.16 649.221 3209.99C666.217 3226.95 675.626 3249.41 675.626 3273.38C675.626 3297.34 666.293 3319.8 649.221 3336.76C632.149 3353.64 609.537 3362.99 585.409 3362.99H-7.41237H-15V3355.45V2204.12V2196.58H-7.41237L779.804 2195.23C783.265 2195.23 786.698 2195.42 790.091 2195.8C792.869 2195.36 795.69 2195.04 798.546 2194.85C799.153 2194.7 799.76 2194.62 800.443 2194.62H801.05H803.554H812.962H846.424H947.946H1095.6C1136.95 2194.62 1170.64 2161.23 1170.64 2120.08C1170.64 2100.26 1162.83 2081.57 1148.71 2067.48C1134.6 2053.38 1115.86 2045.62 1095.83 2045.54H1088.24V2044.79H1064.26C1040.14 2044.79 1017.52 2035.52 1000.45 2018.56C983.456 2001.6 974.048 1979.14 974.048 1955.18C974.048 1931.21 983.38 1908.75 1000.45 1891.79C1017.52 1874.91 1040.14 1865.56 1064.26 1865.56H1088.24V1864.58L1095.75 1864.51C1115.63 1864.36 1134.37 1856.52 1148.41 1842.5C1162.45 1828.41 1170.19 1809.79 1170.19 1789.97C1170.19 1770.15 1162.45 1751.53 1148.41 1737.44C1134.37 1723.42 1115.71 1715.58 1095.75 1715.43L1088.24 1715.35V1714.98H1007.89C983.76 1714.98 961.149 1705.71 944.076 1688.75C927.08 1671.79 917.672 1649.33 917.672 1625.36C917.672 1601.39 927.004 1578.93 944.076 1561.98C961.149 1545.09 983.76 1535.75 1007.89 1535.75H1088.47V1534.84L1095.9 1534.69C1115.71 1534.39 1134.3 1526.48 1148.18 1512.46C1162.07 1498.44 1169.73 1479.82 1169.73 1460.15C1169.73 1419.08 1136.12 1385.61 1094.69 1385.61H869.076C866.603 1385.81 864.109 1385.92 861.598 1385.92H-7.41237H-15V1378.38V225.537Z"/>
</mask>
<path d="M-15 218V210H-23V218H-15ZM-7.41237 218L-7.4108 210H-7.41237V218ZM760.076 218.151L760.074 226.151H760.076V218.151ZM823.888 244.379L829.538 238.716L829.532 238.71L829.526 238.703L823.888 244.379ZM824.722 370.245L830.437 375.843L830.437 375.843L824.722 370.245ZM762.732 397.378V405.378H762.847L762.962 405.374L762.732 397.378ZM471.215 524.223L465.531 529.853L465.539 529.861L465.547 529.869L471.215 524.223ZM523.494 546.457L523.656 538.459L523.636 538.459L523.616 538.458L523.494 546.457ZM530.93 546.608H538.93V538.769L531.092 538.61L530.93 546.608ZM530.93 547.663H522.93V555.663H530.93V547.663ZM675.398 573.892L681.049 568.228L681.042 568.222L681.036 568.216L675.398 573.892ZM675.398 700.662L681.023 706.35L681.03 706.344L681.036 706.338L675.398 700.662ZM531.005 726.89V718.89H523.005V726.89H531.005ZM531.005 727.267L531.086 735.267L539.005 735.187V727.267H531.005ZM523.494 727.342L523.554 735.342L523.564 735.342L523.574 735.342L523.494 727.342ZM470.836 749.35L465.183 743.69L465.175 743.697L465.167 743.705L470.836 749.35ZM470.836 854.414L465.167 860.06L465.175 860.067L465.183 860.075L470.836 854.414ZM523.494 876.422L523.574 868.422L523.564 868.422L523.554 868.422L523.494 876.422ZM531.005 876.497H539.005V868.577L531.086 868.498L531.005 876.497ZM531.005 877.477H523.005V885.477H531.005V877.477ZM618.794 903.706L624.445 898.042L624.438 898.036L624.432 898.03L618.794 903.706ZM618.794 1030.48L613.169 1024.79L613.169 1024.79L618.794 1030.48ZM531.005 1056.7V1048.7H523.005V1056.7H531.005ZM531.005 1057.46V1065.46H539.005V1057.46H531.005ZM523.418 1057.46V1049.46H523.403L523.388 1049.46L523.418 1057.46ZM470.532 1079.39L476.17 1085.07L476.178 1085.06L476.185 1085.05L470.532 1079.39ZM854.029 1206.54V1214.54H854.257L854.485 1214.52L854.029 1206.54ZM859.323 1206.39L859.341 1198.39L859.332 1198.39H859.323V1206.39ZM1449.41 1207.74L1449.39 1215.74L1449.4 1215.74H1449.41V1207.74ZM1457 1207.74H1465V1199.74H1457V1207.74ZM1457 2373.93V2381.93H1465V2373.93H1457ZM795.114 2373.46L795.917 2365.5L794.847 2365.39L793.787 2365.57L795.114 2373.46ZM782.611 2374.68V2382.68H782.726L782.842 2382.68L782.611 2374.68ZM491.095 2501.52L485.411 2507.15L485.418 2507.16L485.426 2507.17L491.095 2501.52ZM543.373 2523.76L543.535 2515.76L543.515 2515.76L543.495 2515.76L543.373 2523.76ZM550.809 2523.91H558.809V2516.07L550.971 2515.91L550.809 2523.91ZM550.809 2524.81H542.809V2532.81H550.809V2524.81ZM695.354 2551.04L701.004 2545.38L700.998 2545.37L700.991 2545.37L695.354 2551.04ZM695.354 2677.81L700.979 2683.5L700.985 2683.49L700.991 2683.49L695.354 2677.81ZM550.961 2704.04V2696.04H542.961V2704.04H550.961ZM550.961 2704.42L551.041 2712.42L558.961 2712.34V2704.42H550.961ZM543.449 2704.49L543.51 2712.49L543.52 2712.49L543.53 2712.49L543.449 2704.49ZM490.791 2726.5L485.138 2720.84L485.13 2720.85L485.123 2720.85L490.791 2726.5ZM490.791 2831.56L485.123 2837.21L485.13 2837.22L485.138 2837.23L490.791 2831.56ZM543.449 2853.57L543.53 2845.57L543.52 2845.57L543.51 2845.57L543.449 2853.57ZM550.961 2853.65H558.961V2845.73L551.041 2845.65L550.961 2853.65ZM550.961 2854.63H542.961V2862.63H550.961V2854.63ZM638.75 2880.86L644.4 2875.19L644.394 2875.19L644.388 2875.18L638.75 2880.86ZM638.75 3007.63L644.375 3013.31L644.381 3013.31L644.388 3013.3L638.75 3007.63ZM550.961 3033.85V3025.85H542.961V3033.85H550.961ZM550.961 3034.61V3042.61H558.961V3034.61H550.961ZM543.373 3034.61V3026.61H543.358L543.343 3026.61L543.373 3034.61ZM490.488 3056.54L496.125 3062.22L496.133 3062.21L496.141 3062.2L490.488 3056.54ZM590.113 3183.69H598.113V3175.69H590.113V3183.69ZM590.113 3183.84H582.113V3191.44L589.708 3191.83L590.113 3183.84ZM649.221 3209.99L654.871 3204.33L654.865 3204.32L654.859 3204.32L649.221 3209.99ZM649.221 3336.76L654.846 3342.45L654.852 3342.44L654.859 3342.44L649.221 3336.76ZM-15 3362.99H-23V3370.99H-15V3362.99ZM-15 2196.58V2188.58H-23V2196.58H-15ZM-7.41237 2196.58L-7.41237 2204.58L-7.39859 2204.58L-7.41237 2196.58ZM779.804 2195.23L779.804 2187.23L779.79 2187.23L779.804 2195.23ZM790.091 2195.8L789.195 2203.75L790.28 2203.87L791.357 2203.7L790.091 2195.8ZM798.546 2194.85L799.07 2202.83L799.782 2202.78L800.474 2202.61L798.546 2194.85ZM1095.83 2045.54L1095.86 2037.54L1095.84 2037.54H1095.83V2045.54ZM1088.24 2045.54H1080.24V2053.54H1088.24V2045.54ZM1088.24 2044.79H1096.24V2036.79H1088.24V2044.79ZM1000.45 2018.56L994.802 2024.22L994.808 2024.23L994.815 2024.24L1000.45 2018.56ZM1000.45 1891.79L994.827 1886.1L994.821 1886.11L994.815 1886.11L1000.45 1891.79ZM1088.24 1865.56V1873.56H1096.24V1865.56H1088.24ZM1088.24 1864.58L1088.16 1856.58L1080.24 1856.66V1864.58H1088.24ZM1095.75 1864.51L1095.69 1856.51L1095.68 1856.51L1095.67 1856.51L1095.75 1864.51ZM1148.41 1842.5L1154.06 1848.16L1154.07 1848.15L1154.08 1848.14L1148.41 1842.5ZM1148.41 1737.44L1154.08 1731.79L1154.07 1731.78L1154.06 1731.77L1148.41 1737.44ZM1095.75 1715.43L1095.67 1723.43L1095.68 1723.43L1095.69 1723.43L1095.75 1715.43ZM1088.24 1715.35H1080.24V1723.27L1088.16 1723.35L1088.24 1715.35ZM1088.24 1714.98H1096.24V1706.98H1088.24V1714.98ZM944.076 1688.75L938.426 1694.41L938.432 1694.42L938.439 1694.42L944.076 1688.75ZM944.076 1561.98L938.451 1556.29L938.445 1556.29L938.439 1556.3L944.076 1561.98ZM1088.47 1535.75V1543.75H1096.47V1535.75H1088.47ZM1088.47 1534.84L1088.31 1526.85L1080.47 1527V1534.84H1088.47ZM1095.9 1534.69L1095.78 1526.69L1095.76 1526.69L1095.74 1526.69L1095.9 1534.69ZM869.076 1385.61V1377.61H868.753L868.431 1377.64L869.076 1385.61ZM-15 1385.92H-23V1393.92H-15V1385.92ZM-23 218V225.537H-7V218H-23ZM-7.41237 210H-15V226H-7.41237V210ZM760.077 210.151L-7.4108 210L-7.41395 226L760.074 226.151L760.077 210.151ZM829.526 238.703C810.944 220.246 786.302 210.151 760.076 210.151V226.151C782.107 226.151 802.687 234.596 818.25 250.055L829.526 238.703ZM858.293 307.764C858.293 281.649 848.023 257.159 829.538 238.716L818.237 250.042C833.746 265.516 842.293 285.945 842.293 307.764H858.293ZM830.437 375.843C848.357 357.551 858.293 333.387 858.293 307.764H842.293C842.293 329.171 834.018 349.324 819.008 364.647L830.437 375.843ZM762.962 405.374C788.559 404.636 812.527 394.126 830.437 375.843L819.008 364.647C803.988 379.979 783.948 388.763 762.501 389.381L762.962 405.374ZM762.58 405.378H762.732V389.378H762.58V405.378ZM762.428 405.378H762.58V389.378H762.428V405.378ZM524.708 405.378H762.428V389.378H524.708V405.378ZM457.666 471.918C457.666 435.24 487.718 405.378 524.708 405.378V389.378C478.993 389.378 441.666 426.292 441.666 471.918H457.666ZM476.899 518.594C464.494 506.07 457.666 489.476 457.666 471.918H441.666C441.666 493.702 450.165 514.34 465.531 529.853L476.899 518.594ZM523.616 538.458C505.911 538.189 489.384 531.13 476.883 518.578L465.547 529.869C480.969 545.355 501.469 554.123 523.372 554.456L523.616 538.458ZM531.092 538.61L523.656 538.459L523.332 554.456L530.767 554.606L531.092 538.61ZM538.93 547.663V546.608H522.93V547.663H538.93ZM611.586 539.663H530.93V555.663H611.586V539.663ZM681.036 568.216C662.455 549.759 637.812 539.663 611.586 539.663V555.663C633.617 555.663 654.197 564.108 669.76 579.567L681.036 568.216ZM709.803 637.277C709.803 611.162 699.533 586.671 681.049 568.228L669.748 579.555C685.256 595.028 693.803 615.457 693.803 637.277H709.803ZM681.036 706.338C699.619 687.879 709.803 663.376 709.803 637.277H693.803C693.803 659.112 685.321 679.529 669.76 694.986L681.036 706.338ZM611.586 734.89C637.828 734.89 662.458 724.709 681.023 706.35L669.773 694.974C654.194 710.38 633.602 718.89 611.586 718.89V734.89ZM531.005 734.89H611.586V718.89H531.005V734.89ZM539.005 727.267V726.89H523.005V727.267H539.005ZM523.574 735.342L531.086 735.267L530.925 719.267L523.414 719.343L523.574 735.342ZM476.489 755.011C489.039 742.477 505.771 735.477 523.554 735.342L523.433 719.343C501.457 719.509 480.707 728.186 465.183 743.69L476.489 755.011ZM457.059 801.882C457.059 784.194 463.947 767.603 476.504 754.996L465.167 743.705C449.65 759.285 441.059 779.926 441.059 801.882H457.059ZM476.504 848.769C463.947 836.162 457.059 819.57 457.059 801.882H441.059C441.059 823.838 449.65 844.479 465.167 860.06L476.504 848.769ZM523.554 868.422C505.7 868.287 489.042 861.291 476.489 848.754L465.183 860.075C480.703 875.575 501.377 884.255 523.433 884.422L523.554 868.422ZM531.086 868.498L523.574 868.422L523.413 884.422L530.925 884.497L531.086 868.498ZM539.005 877.477V876.497H523.005V877.477H539.005ZM554.982 869.477H531.005V885.477H554.982V869.477ZM624.432 898.03C605.851 879.573 581.209 869.477 554.982 869.477V885.477C577.013 885.477 597.593 893.922 613.156 909.381L624.432 898.03ZM653.199 967.091C653.199 940.976 642.929 916.485 624.445 898.042L613.144 909.369C628.652 924.842 637.199 945.271 637.199 967.091H653.199ZM624.419 1036.16C643.022 1017.77 653.199 993.18 653.199 967.091H637.199C637.199 988.936 628.711 1009.42 613.169 1024.79L624.419 1036.16ZM554.982 1064.7C581.224 1064.7 605.854 1054.52 624.42 1036.16L613.169 1024.79C597.59 1040.19 576.998 1048.7 554.982 1048.7V1064.7ZM531.005 1064.7H554.982V1048.7H531.005V1064.7ZM539.005 1057.46V1056.7H523.005V1057.46H539.005ZM523.418 1065.46H531.005V1049.46H523.418V1065.46ZM476.185 1085.05C488.792 1072.46 505.583 1065.53 523.448 1065.46L523.388 1049.46C501.341 1049.54 480.498 1058.13 464.879 1073.73L476.185 1085.05ZM456.604 1132C456.604 1114.24 463.562 1097.59 476.17 1085.07L464.894 1073.71C449.276 1089.23 440.604 1109.96 440.604 1132H456.604ZM523.646 1198.54C486.59 1198.54 456.604 1168.61 456.604 1132H440.604C440.604 1177.54 477.844 1214.54 523.646 1214.54V1198.54ZM854.029 1198.54H523.646V1214.54H854.029V1198.54ZM859.323 1198.39C857.398 1198.39 855.481 1198.44 853.574 1198.55L854.485 1214.52C856.089 1214.43 857.702 1214.39 859.323 1214.39V1198.39ZM1449.43 1199.74L859.341 1198.39L859.304 1214.39L1449.39 1215.74L1449.43 1199.74ZM1457 1199.74H1449.41V1215.74H1457V1199.74ZM1465 1215.28V1207.74H1449V1215.28H1465ZM1465 2366.39V1215.28H1449V2366.39H1465ZM1465 2373.93V2366.39H1449V2373.93H1465ZM1449.41 2381.93H1457V2365.93H1449.41V2381.93ZM804.464 2381.93H1449.41V2365.93H804.464V2381.93ZM794.31 2381.42C797.663 2381.75 801.051 2381.93 804.464 2381.93V2365.93C801.586 2365.93 798.734 2365.78 795.917 2365.5L794.31 2381.42ZM782.842 2382.68C787.433 2382.54 791.974 2382.1 796.44 2381.35L793.787 2365.57C790.047 2366.2 786.238 2366.57 782.381 2366.68L782.842 2382.68ZM782.459 2382.68H782.611V2366.68H782.459V2382.68ZM782.308 2382.68H782.459V2366.68H782.308V2382.68ZM544.587 2382.68H782.308V2366.68H544.587V2382.68ZM477.546 2449.22C477.546 2412.54 507.597 2382.68 544.587 2382.68V2366.68C498.873 2366.68 461.546 2403.59 461.546 2449.22H477.546ZM496.778 2495.89C484.374 2483.37 477.546 2466.78 477.546 2449.22H461.546C461.546 2471 470.045 2491.64 485.411 2507.15L496.778 2495.89ZM543.495 2515.76C525.791 2515.49 509.263 2508.43 496.763 2495.88L485.426 2507.17C500.849 2522.66 521.348 2531.42 543.252 2531.76L543.495 2515.76ZM550.971 2515.91L543.535 2515.76L543.211 2531.76L550.647 2531.91L550.971 2515.91ZM558.809 2524.81V2523.91H542.809V2524.81H558.809ZM631.542 2516.81H550.809V2532.81H631.542V2516.81ZM700.991 2545.37C682.41 2526.91 657.768 2516.81 631.542 2516.81V2532.81C653.572 2532.81 674.153 2541.26 689.716 2556.72L700.991 2545.37ZM729.758 2614.43C729.758 2588.31 719.488 2563.82 701.004 2545.38L689.703 2556.7C705.211 2572.18 713.758 2592.61 713.758 2614.43H729.758ZM700.991 2683.49C719.575 2665.03 729.758 2640.53 729.758 2614.43H713.758C713.758 2636.26 705.277 2656.68 689.716 2672.14L700.991 2683.49ZM631.542 2712.04C657.783 2712.04 682.414 2701.86 700.979 2683.5L689.728 2672.12C674.149 2687.53 653.557 2696.04 631.542 2696.04V2712.04ZM550.961 2712.04H631.542V2696.04H550.961V2712.04ZM558.961 2704.42V2704.04H542.961V2704.42H558.961ZM543.53 2712.49L551.041 2712.42L550.881 2696.42L543.369 2696.49L543.53 2712.49ZM496.444 2732.16C508.994 2719.63 525.727 2712.63 543.51 2712.49L543.389 2696.49C521.413 2696.66 500.662 2705.34 485.138 2720.84L496.444 2732.16ZM477.015 2779.03C477.015 2761.34 483.903 2744.75 496.459 2732.15L485.123 2720.85C469.605 2736.44 461.015 2757.08 461.015 2779.03H477.015ZM496.459 2825.92C483.903 2813.31 477.015 2796.72 477.015 2779.03H461.015C461.015 2800.99 469.605 2821.63 485.123 2837.21L496.459 2825.92ZM543.51 2845.57C525.655 2845.44 508.998 2838.44 496.444 2825.9L485.138 2837.23C500.659 2852.73 521.332 2861.41 543.389 2861.57L543.51 2845.57ZM551.041 2845.65L543.53 2845.57L543.369 2861.57L550.881 2861.65L551.041 2845.65ZM558.961 2854.63V2853.65H542.961V2854.63H558.961ZM574.938 2846.63H550.961V2862.63H574.938V2846.63ZM644.388 2875.18C625.806 2856.72 601.164 2846.63 574.938 2846.63V2862.63C596.969 2862.63 617.549 2871.07 633.112 2886.53L644.388 2875.18ZM673.155 2944.24C673.155 2918.13 662.885 2893.64 644.4 2875.19L633.099 2886.52C648.608 2901.99 657.155 2922.42 657.155 2944.24H673.155ZM644.388 3013.3C662.971 2994.84 673.155 2970.34 673.155 2944.24H657.155C657.155 2966.08 648.673 2986.49 633.112 3001.95L644.388 3013.3ZM574.938 3041.85C601.179 3041.85 625.81 3031.67 644.375 3013.31L633.125 3001.94C617.545 3017.34 596.954 3025.85 574.938 3025.85V3041.85ZM550.961 3041.85H574.938V3025.85H550.961V3041.85ZM558.961 3034.61V3033.85H542.961V3034.61H558.961ZM543.373 3042.61H550.961V3026.61H543.373V3042.61ZM496.141 3062.2C508.748 3049.61 525.539 3042.68 543.404 3042.61L543.343 3026.61C521.297 3026.69 500.453 3035.28 484.835 3050.88L496.141 3062.2ZM476.559 3109.15C476.559 3091.39 483.517 3074.74 496.125 3062.22L484.85 3050.86C469.232 3066.38 460.559 3087.11 460.559 3109.15H476.559ZM543.601 3175.69C506.545 3175.69 476.559 3145.76 476.559 3109.15H460.559C460.559 3154.69 497.8 3191.69 543.601 3191.69V3175.69ZM590.113 3175.69H543.601V3191.69H590.113V3175.69ZM598.113 3183.84V3183.69H582.113V3183.84H598.113ZM654.859 3204.32C637.524 3187.1 614.794 3177.08 590.518 3175.85L589.708 3191.83C610.048 3192.86 629.05 3201.23 643.583 3215.67L654.859 3204.32ZM683.626 3273.38C683.626 3247.26 673.356 3222.77 654.871 3204.33L643.57 3215.65C659.079 3231.13 667.626 3251.56 667.626 3273.38H683.626ZM654.859 3342.44C673.442 3323.98 683.626 3299.48 683.626 3273.38H667.626C667.626 3295.21 659.144 3315.63 643.583 3331.09L654.859 3342.44ZM585.409 3370.99C611.65 3370.99 636.281 3360.81 654.846 3342.45L643.596 3331.07C628.016 3346.48 607.424 3354.99 585.409 3354.99V3370.99ZM-7.41237 3370.99H585.409V3354.99H-7.41237V3370.99ZM-15 3370.99H-7.41237V3354.99H-15V3370.99ZM-23 3355.45V3362.99H-7V3355.45H-23ZM-23 2204.12V3355.45H-7V2204.12H-23ZM-23 2196.58V2204.12H-7V2196.58H-23ZM-7.41237 2188.58H-15V2204.58H-7.41237V2188.58ZM779.79 2187.23L-7.42616 2188.58L-7.39859 2204.58L779.818 2203.23L779.79 2187.23ZM790.987 2187.85C787.296 2187.44 783.564 2187.23 779.804 2187.23V2203.23C782.967 2203.23 786.101 2203.4 789.195 2203.75L790.987 2187.85ZM798.021 2186.87C794.916 2187.07 791.848 2187.42 788.824 2187.9L791.357 2203.7C793.89 2203.29 796.463 2203 799.07 2202.83L798.021 2186.87ZM800.443 2186.62C799.132 2186.62 797.876 2186.77 796.618 2187.08L800.474 2202.61C800.474 2202.61 800.473 2202.61 800.473 2202.61C800.472 2202.61 800.47 2202.61 800.469 2202.61C800.465 2202.61 800.461 2202.62 800.455 2202.62C800.444 2202.62 800.432 2202.62 800.421 2202.62C800.41 2202.62 800.405 2202.62 800.406 2202.62C800.408 2202.62 800.419 2202.62 800.443 2202.62V2186.62ZM801.05 2186.62H800.443V2202.62H801.05V2186.62ZM803.554 2186.62H801.05V2202.62H803.554V2186.62ZM812.962 2186.62H803.554V2202.62H812.962V2186.62ZM846.424 2186.62H812.962V2202.62H846.424V2186.62ZM947.946 2186.62H846.424V2202.62H947.946V2186.62ZM1095.6 2186.62H947.946V2202.62H1095.6V2186.62ZM1162.64 2120.08C1162.64 2156.76 1132.59 2186.62 1095.6 2186.62V2202.62C1141.32 2202.62 1178.64 2165.71 1178.64 2120.08H1162.64ZM1143.06 2073.14C1155.69 2085.75 1162.64 2102.41 1162.64 2120.08H1178.64C1178.64 2098.11 1169.97 2077.39 1154.37 2061.81L1143.06 2073.14ZM1095.8 2053.54C1113.74 2053.61 1130.45 2060.54 1143.06 2073.14L1154.37 2061.81C1138.75 2046.22 1117.99 2037.63 1095.86 2037.54L1095.8 2053.54ZM1088.24 2053.54H1095.83V2037.54H1088.24V2053.54ZM1080.24 2044.79V2045.54H1096.24V2044.79H1080.24ZM1064.26 2052.79H1088.24V2036.79H1064.26V2052.79ZM994.815 2024.24C1013.4 2042.69 1038.04 2052.79 1064.26 2052.79V2036.79C1042.23 2036.79 1021.65 2028.34 1006.09 2012.89L994.815 2024.24ZM966.048 1955.18C966.048 1981.29 976.318 2005.78 994.802 2024.22L1006.1 2012.9C990.595 1997.42 982.048 1977 982.048 1955.18H966.048ZM994.815 1886.11C976.232 1904.57 966.048 1929.08 966.048 1955.18H982.048C982.048 1933.34 990.529 1912.92 1006.09 1897.47L994.815 1886.11ZM1064.26 1857.56C1038.02 1857.56 1013.39 1867.74 994.827 1886.1L1006.08 1897.48C1021.66 1882.07 1042.25 1873.56 1064.26 1873.56V1857.56ZM1088.24 1857.56H1064.26V1873.56H1088.24V1857.56ZM1080.24 1864.58V1865.56H1096.24V1864.58H1080.24ZM1095.67 1856.51L1088.16 1856.58L1088.32 1872.58L1095.83 1872.51L1095.67 1856.51ZM1142.76 1836.84C1130.21 1849.37 1113.48 1856.37 1095.69 1856.51L1095.81 1872.51C1117.79 1872.34 1138.54 1863.66 1154.06 1848.16L1142.76 1836.84ZM1162.19 1789.97C1162.19 1807.66 1155.3 1824.25 1142.74 1836.85L1154.08 1848.14C1169.6 1832.56 1178.19 1811.92 1178.19 1789.97H1162.19ZM1142.74 1743.08C1155.3 1755.69 1162.19 1772.28 1162.19 1789.97H1178.19C1178.19 1768.01 1169.6 1747.37 1154.08 1731.79L1142.74 1743.08ZM1095.69 1723.43C1113.55 1723.56 1130.2 1730.56 1142.76 1743.1L1154.06 1731.77C1138.54 1716.27 1117.87 1707.59 1095.81 1707.43L1095.69 1723.43ZM1088.16 1723.35L1095.67 1723.43L1095.83 1707.43L1088.32 1707.35L1088.16 1723.35ZM1080.24 1714.98V1715.35H1096.24V1714.98H1080.24ZM1007.89 1722.98H1088.24V1706.98H1007.89V1722.98ZM938.439 1694.42C957.02 1712.88 981.662 1722.98 1007.89 1722.98V1706.98C985.857 1706.98 965.277 1698.53 949.714 1683.07L938.439 1694.42ZM909.672 1625.36C909.672 1651.48 919.942 1675.97 938.426 1694.41L949.727 1683.08C934.219 1667.61 925.672 1647.18 925.672 1625.36H909.672ZM938.439 1556.3C919.855 1574.76 909.672 1599.26 909.672 1625.36H925.672C925.672 1603.53 934.153 1583.11 949.714 1567.65L938.439 1556.3ZM1007.89 1527.75C981.647 1527.75 957.016 1537.93 938.451 1556.29L949.702 1567.67C965.281 1552.26 985.873 1543.75 1007.89 1543.75V1527.75ZM1088.47 1527.75H1007.89V1543.75H1088.47V1527.75ZM1080.47 1534.84V1535.75H1096.47V1534.84H1080.47ZM1095.74 1526.69L1088.31 1526.85L1088.63 1542.84L1096.07 1542.69L1095.74 1526.69ZM1142.5 1506.83C1130.09 1519.36 1113.5 1526.42 1095.78 1526.69L1096.03 1542.69C1117.92 1542.36 1138.51 1533.6 1153.87 1518.09L1142.5 1506.83ZM1161.73 1460.15C1161.73 1477.71 1154.9 1494.31 1142.5 1506.83L1153.87 1518.09C1169.23 1502.58 1177.73 1481.94 1177.73 1460.15H1161.73ZM1094.69 1393.61C1131.75 1393.61 1161.73 1423.54 1161.73 1460.15H1177.73C1177.73 1414.61 1140.49 1377.61 1094.69 1377.61V1393.61ZM869.076 1393.61H1094.69V1377.61H869.076V1393.61ZM861.598 1393.92C864.324 1393.92 867.034 1393.81 869.722 1393.59L868.431 1377.64C866.173 1377.82 863.894 1377.92 861.598 1377.92V1393.92ZM-7.41237 1393.92H861.598V1377.92H-7.41237V1393.92ZM-15 1393.92H-7.41237V1377.92H-15V1393.92ZM-23 1378.38V1385.92H-7V1378.38H-23ZM-23 225.537V1378.38H-7V225.537H-23Z" fill="white" mask="url(#path-9-inside-1)"/>
</g>
<defs>
<filter id="filter0_f" x="-4" y="214" width="1448" height="3152.99" filterUnits="userSpaceOnUse" color-interpolation-filters="sRGB">
<feFlood flood-opacity="0" result="BackgroundImageFix"/>
<feBlend mode="normal" in="SourceGraphic" in2="BackgroundImageFix" result="shape"/>
<feGaussianBlur stdDeviation="2" result="effect1_foregroundBlur"/>
</filter>
<filter id="filter1_f" x="-358" y="-32" width="1588.98" height="1667.92" filterUnits="userSpaceOnUse" color-interpolation-filters="sRGB">
<feFlood flood-opacity="0" result="BackgroundImageFix"/>
<feBlend mode="normal" in="SourceGraphic" in2="BackgroundImageFix" result="shape"/>
<feGaussianBlur stdDeviation="125" result="effect1_foregroundBlur"/>
</filter>
<filter id="filter2_f" x="463.309" y="956.387" width="1336.69" height="1667.54" filterUnits="userSpaceOnUse" color-interpolation-filters="sRGB">
<feFlood flood-opacity="0" result="BackgroundImageFix"/>
<feBlend mode="normal" in="SourceGraphic" in2="BackgroundImageFix" result="shape"/>
<feGaussianBlur stdDeviation="125" result="effect1_foregroundBlur"/>
</filter>
<filter id="filter3_f" x="-358" y="1945.23" width="1497.02" height="1667.76" filterUnits="userSpaceOnUse" color-interpolation-filters="sRGB">
<feFlood flood-opacity="0" result="BackgroundImageFix"/>
<feBlend mode="normal" in="SourceGraphic" in2="BackgroundImageFix" result="shape"/>
<feGaussianBlur stdDeviation="125" result="effect1_foregroundBlur"/>
</filter>
<linearGradient id="paint0_linear" x1="436.491" y1="221.768" x2="436.491" y2="1382.15" gradientUnits="userSpaceOnUse">
<stop stop-color="#FFE12E"/>
<stop offset="1" stop-color="#00C2D0"/>
</linearGradient>
<linearGradient id="paint1_linear" x1="1131.65" y1="1210.46" x2="1131.65" y2="2370.68" gradientUnits="userSpaceOnUse">
<stop stop-color="#E7005D"/>
<stop offset="1" stop-color="#FFE12E"/>
</linearGradient>
<linearGradient id="paint2_linear" x1="1131.65" y1="1206.39" x2="1131.65" y2="2373.93" gradientUnits="userSpaceOnUse">
<stop stop-color="#FFE12E"/>
<stop offset="1" stop-color="#FFE12E" stop-opacity="0"/>
</linearGradient>
<linearGradient id="paint3_linear" x1="390.426" y1="2198.99" x2="390.426" y2="3359.22" gradientUnits="userSpaceOnUse">
<stop stop-color="#00C2D0"/>
<stop offset="1" stop-color="#E7005D"/>
</linearGradient>
</defs>
</svg>
