<svg width="55" height="58" viewBox="0 0 55 58" fill="none" xmlns="http://www.w3.org/2000/svg">
<path d="M46.6328 13.6456L46.9264 56.1449L33.7122 55.9219L33.7794 38.5084C33.7794 38.5084 22.3404 38.3267 16.9136 38.28L16.8463 55.7193L2.20396 55.6112C1.81455 40.3114 1.57129 8.48413 1.57129 8.48413L16.2139 8.54063L16.1456 26.2379C21.7649 26.1908 27.387 26.2125 33.012 26.303C33.012 26.303 33.2372 20.1123 33.2625 13.5511L46.6328 13.6456Z" fill="#EA736B"/>
<path fill-rule="evenodd" clip-rule="evenodd" d="M8.32358 8.51023L8.86437 43.8729C10.9957 44.1392 14.0794 44.2628 16.8796 44.3166L16.8356 55.7192L2.19322 55.6112C1.80385 40.3028 1.56055 8.48413 1.56055 8.48413L8.32358 8.51023ZM39.6714 20.1373C39.6714 20.1373 39.6824 17.291 39.7973 13.6195L33.2539 13.5942C33.2451 15.873 33.2365 18.1002 33.1741 20.0434C35.343 20.0518 37.5028 20.0601 39.6714 20.1373ZM40.37 49.7047L40.4372 32.2998C40.4372 32.2998 28.9891 32.118 23.5624 32.0455L23.5381 38.3401L33.7691 38.4914L33.7019 55.9221L46.9161 56.1451L46.8676 49.7469C44.7078 49.7472 42.5389 49.7388 40.37 49.7047Z" fill="#FFC700"/>
<path fill-rule="evenodd" clip-rule="evenodd" d="M53.5441 1.49574L39.9449 1.44326L39.9441 1.63245C39.9312 4.99475 39.8579 9.75853 39.7972 13.6194L46.6335 13.6458L46.8693 49.7641L53.5774 49.79L53.5441 1.49574ZM16.1348 26.2381L16.2031 8.54081L8.3602 8.51054L8.26529 2.27563L22.9078 2.33213L22.8398 19.9606L33.2177 20.0006L33.0012 26.3031C27.3763 26.2126 21.7542 26.1909 16.1348 26.2381ZM16.8805 44.2995L16.9037 38.2801L23.5386 38.3057L23.5154 44.3251C23.5154 44.3251 20.4402 44.3735 16.8805 44.2995Z" fill="#61D0E9"/>
<path fill-rule="evenodd" clip-rule="evenodd" d="M53.5489 0.205548L39.9496 0.153076C39.587 0.156131 39.24 0.292124 38.9827 0.532077C38.7253 0.772029 38.5779 1.09697 38.5719 1.43767C38.5584 4.91671 38.5047 8.3956 38.4509 11.8745C38.4486 12.0244 38.4463 12.1743 38.444 12.3241L33.2577 12.3041C32.8951 12.3072 32.5482 12.4432 32.2908 12.6831C32.0335 12.9231 31.8861 13.248 31.88 13.5887C31.8759 14.6498 31.8674 15.7109 31.8544 16.772C31.8383 16.8503 31.8299 16.9303 31.8296 17.0112C31.8274 17.5756 31.8222 18.1403 31.8145 18.7052L24.1906 18.6758L24.2537 2.3372C24.2502 1.99647 24.1054 1.6704 23.8499 1.42847C23.5944 1.18654 23.2485 1.04787 22.8859 1.04202L8.24335 0.985521C7.88073 0.988577 7.53379 1.12457 7.27644 1.36452C7.01909 1.60447 6.87168 1.92942 6.86563 2.27011L6.9409 7.21493L1.56619 7.19419C1.2043 7.1994 0.85867 7.33609 0.601811 7.57558C0.344952 7.81508 0.196817 8.13878 0.188477 8.47878C0.31089 24.1903 0.433304 39.9019 0.821146 55.6058C0.824572 55.9466 0.969464 56.2726 1.22495 56.5146C1.48044 56.7565 1.82633 56.8952 2.18891 56.901L16.8313 57.0091C17.1939 57.0061 17.5408 56.8701 17.7982 56.6301C18.0555 56.3902 18.2029 56.0652 18.209 55.7245L18.2481 45.5945L23.51 45.6148C23.8719 45.6096 24.2175 45.4729 24.4744 45.2334C24.7313 44.9939 24.8794 44.6702 24.8877 44.3302L24.9057 39.6706L32.392 39.8002L32.3297 55.9423C32.3354 56.2823 32.4811 56.6072 32.7361 56.8486C32.9911 57.0901 33.3356 57.2294 33.6975 57.2374L46.9117 57.4604C47.2743 57.4574 47.6213 57.3214 47.8786 57.0814C48.136 56.8415 48.2834 56.5165 48.2894 56.1758L48.2506 51.059L53.5722 51.0796C53.9356 51.0787 54.2839 50.9434 54.5417 50.703C54.7996 50.4626 54.9462 50.1364 54.9499 49.795L54.9349 1.5008C54.9363 1.1587 54.7929 0.830058 54.5364 0.587164C54.2799 0.34427 53.9313 0.207023 53.5672 0.205619L53.558 0.205612L53.5489 0.205548ZM34.5724 18.7737C34.5833 18.1751 34.5933 17.5769 34.6027 16.9789L34.5974 16.9789C34.6063 16.2823 34.6133 15.5857 34.6183 14.8892L38.3841 14.9037C38.3693 15.9637 38.3435 17.0182 38.3174 18.0845C38.3113 18.3342 38.3052 18.5845 38.2991 18.8358C37.4587 18.8256 36.6191 18.8103 35.7792 18.7951C35.3771 18.7878 34.9748 18.7804 34.5724 18.7737ZM34.5197 21.339C34.4815 22.9946 34.4345 24.6515 34.3745 26.3083C34.3685 26.649 34.2211 26.974 33.9637 27.2139C33.7064 27.4539 33.3594 27.5899 32.9968 27.5929C27.3719 27.5081 21.7497 27.4865 16.1304 27.5278C15.7678 27.522 15.4219 27.3833 15.1664 27.1414C14.911 26.8995 14.7661 26.5734 14.7626 26.2326L14.8259 9.82528L9.71672 9.80557L10.2199 42.7092C11.9799 42.8561 13.7441 42.9375 15.5124 42.9906L15.5306 38.2745L15.5309 38.2487L15.5308 38.2229C15.5321 37.8808 15.678 37.5533 15.9363 37.3124C16.1947 37.0715 16.5444 36.9369 16.9085 36.9383L22.1712 36.9996L22.1902 32.0571C22.1963 31.7164 22.3437 31.3914 22.601 31.1515C22.8584 30.9115 23.2053 30.7755 23.568 30.7725C29.1775 30.8284 34.7778 30.9185 40.3871 31.0087H40.3871H40.3872H40.3873H40.3874L40.4428 31.0096C40.8054 31.0154 41.1513 31.1541 41.4068 31.396C41.6623 31.6379 41.8072 31.964 41.8106 32.3047L41.7483 48.4627L45.488 48.4772L45.2689 14.9301L41.14 14.9142C41.1339 15.1675 41.1278 15.42 41.1216 15.6718C41.0849 17.1693 41.0488 18.6436 41.0431 20.1424C41.0361 20.4816 40.9147 20.7506 40.7262 20.9497C40.5068 21.2336 40.153 21.4289 39.6653 21.427C37.9475 21.3659 36.2353 21.3479 34.5197 21.339ZM16.2178 7.25084L9.67913 7.22561L9.62945 3.61368L21.5031 3.65949L21.44 19.9981C21.4434 20.3388 21.5883 20.6649 21.8438 20.9068C22.0993 21.1487 22.4452 21.2874 22.8078 21.2933L31.7623 21.3278C31.7309 22.5621 31.6911 23.797 31.648 25.0321C26.9296 24.9531 22.2088 24.9347 17.4856 24.977L17.5478 8.8418C17.5723 8.74568 17.5852 8.64648 17.5856 8.54602C17.5869 8.20392 17.4435 7.87528 17.187 7.63238C16.9305 7.38949 16.5819 7.25224 16.2178 7.25084ZM22.1605 39.5793L18.2712 39.5341L18.2578 43.0147L22.1472 43.0297L22.1605 39.5793ZM52.2041 48.4945L48.2334 48.4792L48.006 13.6508C48.0025 13.3101 47.8576 12.984 47.6021 12.7421C47.3467 12.5001 47.0008 12.3615 46.6382 12.3556L41.1504 12.3344C41.1641 10.735 41.1901 9.13569 41.2161 7.53635L41.2161 7.53486C41.2421 5.93593 41.2681 4.33701 41.2818 2.73803L52.1899 2.78012L52.2041 48.4945ZM8.38771 45.0418C7.89764 44.8869 7.50025 44.4951 7.4923 43.8676L6.97124 9.79486L2.94401 9.77932C3.05992 24.6322 3.18233 39.485 3.53547 54.3311L15.4685 54.4192L15.5026 45.5704C13.2819 45.5037 11.0676 45.3924 8.86006 45.1628C8.68507 45.1449 8.52762 45.1028 8.38771 45.0418ZM38.998 49.6988C38.998 49.6932 38.998 49.6875 38.998 49.6818C38.9825 45.8124 39.0075 41.9469 39.0326 38.0801C39.0424 36.5702 39.0522 35.0601 39.0596 33.5494C38.1146 33.5335 37.1698 33.5168 36.2251 33.5002L36.2186 33.5001L36.2121 33.4999L36.2056 33.4998C32.4472 33.4336 28.6908 33.3674 24.9308 33.3423L24.9162 37.1132L33.7746 37.2442C34.1365 37.2522 34.481 37.3915 34.736 37.633C34.991 37.8745 35.1367 38.1993 35.1424 38.5394L35.0801 54.6808L45.534 54.8572L45.5052 51.0571L40.3656 51.0372C40.0015 51.0358 39.6529 50.8986 39.3963 50.6557C39.1398 50.4128 38.9965 50.0841 38.9978 49.742L38.9982 49.717C38.9981 49.7109 38.998 49.7049 38.998 49.6988Z" fill="#130523"/>
</svg>
