<svg width="258" height="42" viewBox="0 0 258 42" fill="none" xmlns="http://www.w3.org/2000/svg">
<path d="M19.6868 29.1692C19.1568 28.8392 18.4268 29.2493 18.0468 30.0893C17.8517 30.4254 17.7734 30.8166 17.8241 31.2019C17.8747 31.5872 18.0515 31.945 18.3268 32.2193C18.8668 32.5593 19.5968 32.1493 19.9768 31.3093C20.1731 30.971 20.2511 30.5771 20.1986 30.1895C20.1461 29.802 19.966 29.443 19.6868 29.1692Z" fill="white"/>
<path d="M27.8869 30.3292C27.2569 30.2492 26.6669 30.9392 26.5669 31.8692C26.4669 32.7992 26.9069 33.6292 27.5669 33.7192C28.2269 33.8092 28.7869 33.1092 28.8869 32.1792C28.9869 31.2492 28.5169 30.4192 27.8869 30.3292Z" fill="white"/>
<path d="M24.1969 33.6191L21.7369 33.1091C21.685 33.0989 21.6313 33.1041 21.5823 33.1241C21.5334 33.1441 21.4914 33.1781 21.4616 33.2217C21.4318 33.2654 21.4154 33.3168 21.4146 33.3697C21.4137 33.4226 21.4284 33.4745 21.4569 33.5191L22.3369 34.8491C22.4022 34.9481 22.504 35.0174 22.6201 35.0417C22.7362 35.0661 22.8573 35.0435 22.9569 34.9791L24.2869 34.0991C24.3327 34.0719 24.369 34.0313 24.391 33.9827C24.4129 33.9342 24.4195 33.88 24.4096 33.8277C24.3998 33.7753 24.3741 33.7272 24.3361 33.6899C24.298 33.6526 24.2494 33.6279 24.1969 33.6191V33.6191Z" fill="white"/>
<path d="M43.2167 4.82922C42.16 4.32128 40.9937 4.0837 39.8226 4.13781C38.6514 4.19192 37.512 4.53601 36.5067 5.13922C33.0067 7.19922 31.2467 11.0692 29.6967 14.4792C29.4967 14.9092 29.3067 15.3392 29.1067 15.7592C28.2067 17.6892 27.4767 19.6992 26.7667 21.6392C26.4367 22.5692 26.0967 23.4992 25.7667 24.4192C25.3167 24.3292 24.8667 24.2592 24.4067 24.1792C25.1696 20.6066 25.7338 16.9944 26.0967 13.3592L26.1567 12.7992C26.4667 9.84922 26.8967 5.87922 25.6367 2.92922C25.2874 2.18137 24.7651 1.5274 24.1131 1.02139C23.461 0.515372 22.6978 0.171843 21.8867 0.0192206C21.0388 -0.0503958 20.1861 0.0696334 19.3905 0.3706C18.5948 0.671567 17.8762 1.14592 17.2867 1.75923C16.2067 2.87923 14.6167 5.27921 14.2867 10.3092C14.2877 10.3347 14.2798 10.3597 14.2644 10.38C14.249 10.4004 14.227 10.4147 14.2022 10.4206C14.1774 10.4265 14.1513 10.4236 14.1284 10.4124C14.1055 10.4012 14.0872 10.3824 14.0767 10.3592C13.6852 9.63741 13.1262 9.02012 12.4467 8.55921C12.0946 8.33289 11.6803 8.22274 11.2623 8.24427C10.8443 8.2658 10.4436 8.41793 10.1167 8.67922C8.70666 9.91922 8.81666 12.7492 9.04666 14.4292C9.43666 17.3292 10.4667 20.1292 11.0467 22.9792C11.1767 23.5992 11.4167 24.6992 10.9867 24.8792C10.5418 25.1253 10.0325 25.23 9.52666 25.1792C9.13666 25.0792 8.80666 23.6392 8.64666 22.9392C8.01595 19.2272 7.01082 15.5886 5.64666 12.0792C5.43337 11.4767 5.09223 10.9275 4.64666 10.4692C4.26776 10.1737 3.79749 10.02 3.31722 10.0346C2.83695 10.0492 2.3769 10.2313 2.01666 10.5492C1.43282 11.0472 0.98254 11.6831 0.706658 12.3992C0.168368 13.6993 -0.0675671 15.1046 0.0166591 16.5092C0.120213 19.6293 1.03344 22.6688 2.66666 25.3292C3.19521 26.0491 3.67944 26.8005 4.11666 27.5792C4.30666 28.0592 3.87666 28.5792 3.71666 29.0592C3.5103 29.643 3.36291 30.246 3.27666 30.8592C2.99767 32.734 3.37193 34.6477 4.33666 36.2792C4.98666 37.2792 6.51666 37.3692 7.61666 37.5092C8.8777 37.6574 10.1496 37.6908 11.4167 37.6092C12.1867 37.6092 13.2267 37.4792 13.1667 36.4492C13.045 34.6709 13.3051 32.8871 13.9294 31.2176C14.5538 29.548 15.528 28.0313 16.7867 26.7692C16.9142 26.6579 17.0114 26.516 17.0691 26.3568C17.1268 26.1976 17.1432 26.0264 17.1167 25.8592C14.1167 9.85922 17.1667 4.64922 18.6367 3.12922C19.0381 2.71137 19.5296 2.3906 20.0737 2.19132C20.6179 1.99204 21.2003 1.91951 21.7767 1.97923C22.1691 2.02821 22.5436 2.17222 22.8677 2.39877C23.1919 2.62531 23.4558 2.92754 23.6367 3.27922C24.9667 5.74922 24.5367 9.73923 24.2267 12.6492L24.1667 13.2092C23.7943 17.0957 23.1696 20.9538 22.2967 24.7592C22.2669 24.8774 22.2609 25.0004 22.279 25.121C22.2972 25.2415 22.3391 25.3573 22.4024 25.4615C22.4656 25.5657 22.549 25.6563 22.6476 25.728C22.7462 25.7997 22.858 25.8511 22.9767 25.8792C23.5167 26.0192 24.0667 26.1092 24.6167 26.2092C25.1146 26.2808 25.6085 26.3776 26.0967 26.4992C26.3204 26.5466 26.5536 26.5159 26.7574 26.4121C26.9612 26.3084 27.1233 26.138 27.2167 25.9292C27.6867 24.7392 28.1267 23.5392 28.5667 22.3392C29.2567 20.4392 29.9667 18.4692 30.8367 16.6192L31.4367 15.3192C32.9367 12.0092 34.4967 8.58922 37.4367 6.82922C38.1513 6.39488 38.961 6.14146 39.7957 6.09092C40.6305 6.04039 41.4649 6.19427 42.2267 6.53923C44.3667 7.76923 43.1567 10.9492 42.7367 11.8892C40.8853 15.601 38.6029 19.0817 35.9367 22.2592C35.1267 23.3092 34.3267 24.3492 33.5467 25.3892C32.9867 26.1592 31.7867 27.7692 31.7867 27.7692C31.6749 27.9346 31.6152 28.1296 31.6152 28.3292C31.6152 28.5288 31.6749 28.7238 31.7867 28.8892C31.8867 29.0292 34.1867 31.5692 32.9567 36.7392C32.9097 36.985 32.9565 37.2394 33.088 37.4523C33.2194 37.6652 33.4259 37.8211 33.6667 37.8892C33.7397 37.899 33.8137 37.899 33.8867 37.8892C34.1004 37.8816 34.3061 37.8056 34.4735 37.6724C34.6409 37.5392 34.7612 37.3558 34.8167 37.1492C35.2386 35.6877 35.3587 34.1555 35.1696 32.6461C34.9805 31.1366 34.4862 29.6815 33.7167 28.3692L35.1067 26.4992C35.8667 25.4992 36.6667 24.4292 37.4667 23.3992C40.2158 20.1009 42.5654 16.4892 44.4667 12.6392C46.0867 9.10922 45.5967 6.19922 43.2167 4.82922Z" fill="white"/>
<path d="M62.0965 17.0992C63.5273 17.8386 64.7122 18.9782 65.5065 20.3792C66.3007 21.8796 66.7159 23.5516 66.7159 25.2492C66.7159 26.9469 66.3007 28.6188 65.5065 30.1192C64.7113 31.5316 63.5185 32.6791 62.0765 33.4192C60.4853 34.2254 58.7199 34.6273 56.9365 34.5892H49.9365V15.9292H56.9365C58.7267 15.8874 60.4994 16.2894 62.0965 17.0992V17.0992ZM60.6565 29.2492C61.1581 28.717 61.5449 28.0872 61.7926 27.399C62.0403 26.7109 62.1438 25.9791 62.0965 25.2492C62.1661 24.5162 62.0729 23.7769 61.8236 23.084C61.5743 22.3912 61.1751 21.762 60.6544 21.2413C60.1338 20.7207 59.5045 20.3214 58.8117 20.0721C58.1189 19.8228 57.3795 19.7297 56.6465 19.7992H54.5165V30.6392H56.6765C58.135 30.7218 59.5666 30.2218 60.6565 29.2492V29.2492Z" fill="white"/>
<path d="M83.1768 28.2591H72.8868C72.9012 29.0507 73.22 29.8063 73.7768 30.3691C74.2977 30.8601 74.9912 31.126 75.7068 31.1091C76.2011 31.1447 76.6942 31.025 77.1173 30.7669C77.5404 30.5087 77.8723 30.125 78.0668 29.6691H82.9068C82.6651 30.6359 82.2069 31.5352 81.5668 32.2991C80.9048 33.0866 80.0743 33.7154 79.1368 34.1391C77.997 34.6165 76.7669 34.8397 75.532 34.7931C74.2972 34.7464 73.0873 34.4311 71.9868 33.8691C70.8612 33.2588 69.9371 32.3347 69.3268 31.2091C68.6574 29.983 68.3131 28.6059 68.3268 27.2091C68.2995 25.818 68.6228 24.4424 69.2668 23.2091C69.8707 22.0821 70.7921 21.1572 71.9168 20.5491C73.1197 19.9114 74.4656 19.5913 75.8268 19.6191C77.1599 19.5935 78.4777 19.9066 79.6568 20.5291C80.7545 21.1188 81.6602 22.0106 82.2668 23.0991C82.9361 24.2926 83.2808 25.6408 83.2668 27.0091C83.258 27.427 83.228 27.8442 83.1768 28.2591ZM78.6068 25.7691C78.6199 25.4176 78.5549 25.0677 78.4166 24.7443C78.2783 24.421 78.07 24.1323 77.8068 23.8991C77.246 23.4339 76.5351 23.1886 75.8068 23.2091C75.0886 23.1834 74.388 23.4348 73.85 23.9114C73.3121 24.3879 72.9779 25.053 72.9168 25.7691H78.6068Z" fill="white"/>
<path d="M88.2269 34.1393C87.2872 33.7478 86.4642 33.121 85.8369 32.3193C85.2534 31.5708 84.9053 30.6659 84.8369 29.7193H89.3369C89.3581 29.9665 89.4325 30.2062 89.5551 30.422C89.6776 30.6378 89.8454 30.8245 90.0469 30.9693C90.503 31.298 91.055 31.4667 91.6169 31.4493C92.0804 31.4775 92.5413 31.3623 92.9369 31.1193C93.102 31.0211 93.2353 30.8775 93.321 30.7056C93.4066 30.5337 93.441 30.3408 93.4199 30.1498C93.3988 29.9589 93.3232 29.7782 93.202 29.6291C93.0809 29.48 92.9194 29.369 92.7369 29.3093C92.0398 29.0248 91.3208 28.7973 90.5869 28.6292C89.6829 28.4325 88.794 28.1719 87.9269 27.8493C87.2159 27.574 86.5839 27.1275 86.0869 26.5493C85.5463 25.866 85.2726 25.0094 85.3169 24.1393C85.3121 23.3086 85.5597 22.4961 86.0269 21.8093C86.5456 21.0709 87.2635 20.4952 88.0969 20.1493C89.1296 19.7224 90.2397 19.5147 91.3569 19.5393C92.9424 19.4507 94.506 19.9411 95.7569 20.9193C96.8321 21.8506 97.4939 23.1705 97.5969 24.5893H93.3969C93.3718 24.3516 93.2996 24.1213 93.1846 23.9119C93.0696 23.7024 92.914 23.518 92.7269 23.3693C92.2886 23.0536 91.7565 22.8951 91.2169 22.9193C90.7891 22.8918 90.3632 22.9965 89.9969 23.2193C89.8635 23.3142 89.7554 23.4404 89.6822 23.5869C89.6089 23.7334 89.5728 23.8956 89.5769 24.0593C89.5649 24.2761 89.6237 24.491 89.7446 24.6714C89.8655 24.8518 90.0418 24.9879 90.2469 25.0593C90.932 25.3385 91.6418 25.5527 92.3669 25.6993C93.2761 25.9217 94.1711 26.1989 95.0469 26.5293C95.7527 26.8181 96.3774 27.2746 96.8669 27.8593C97.4261 28.554 97.7139 29.4282 97.6769 30.3193C97.69 31.1541 97.434 31.9711 96.9469 32.6493C96.4127 33.3732 95.6847 33.9314 94.8469 34.2593C93.8405 34.6656 92.762 34.863 91.6769 34.8393C90.4909 34.8469 89.3162 34.6085 88.2269 34.1393V34.1393Z" fill="white"/>
<path d="M100.816 17.5092C100.572 17.2912 100.377 17.0228 100.246 16.7224C100.115 16.4221 100.05 16.0969 100.056 15.7692C100.048 15.4367 100.111 15.1063 100.242 14.8008C100.373 14.4952 100.569 14.2217 100.816 13.9992C101.358 13.5397 102.046 13.2875 102.756 13.2875C103.467 13.2875 104.154 13.5397 104.696 13.9992C104.942 14.2234 105.136 14.4972 105.267 14.8023C105.398 15.1075 105.463 15.4371 105.456 15.7692C105.461 16.0966 105.395 16.4212 105.264 16.7213C105.133 17.0213 104.94 17.29 104.696 17.5092C104.154 17.9687 103.467 18.2208 102.756 18.2208C102.046 18.2208 101.358 17.9687 100.816 17.5092V17.5092ZM105.026 19.7492V34.5892H100.516V19.7692L105.026 19.7492Z" fill="white"/>
<path d="M116.717 20.1792C117.46 20.5656 118.088 21.1418 118.537 21.8492V19.7692H123.077V34.5792C123.095 35.8617 122.818 37.1311 122.267 38.2892C121.727 39.3994 120.866 40.3224 119.797 40.9392C118.534 41.6355 117.108 41.9808 115.667 41.9392C113.76 42.0274 111.878 41.4786 110.317 40.3792C109.652 39.8819 109.1 39.2499 108.697 38.5243C108.294 37.7988 108.048 36.9962 107.977 36.1692H112.517C112.582 36.4496 112.704 36.7134 112.876 36.9441C113.048 37.1747 113.266 37.3672 113.517 37.5092C114.121 37.8656 114.816 38.0393 115.517 38.0092C115.927 38.028 116.338 37.9652 116.724 37.8244C117.11 37.6837 117.465 37.4678 117.767 37.1892C118.075 36.8367 118.308 36.4255 118.452 35.9803C118.597 35.5351 118.649 35.0653 118.607 34.5992V32.4992C118.143 33.2066 117.511 33.7875 116.767 34.1892C115.924 34.6366 114.981 34.8604 114.027 34.8392C112.852 34.8542 111.699 34.5276 110.707 33.8992C109.688 33.2388 108.874 32.3071 108.357 31.2092C107.789 29.9521 107.496 28.5885 107.496 27.2092C107.496 25.8299 107.789 24.4663 108.357 23.2092C108.875 22.1196 109.689 21.1978 110.707 20.5492C111.702 19.9285 112.854 19.6057 114.027 19.6192C114.956 19.5829 115.879 19.7752 116.717 20.1792V20.1792ZM117.587 24.4892C117.298 24.1664 116.943 23.9099 116.546 23.7373C116.149 23.5647 115.72 23.4801 115.287 23.4892C114.855 23.4877 114.428 23.5758 114.032 23.7479C113.636 23.9201 113.28 24.1725 112.987 24.4892C112.66 24.8514 112.409 25.2748 112.248 25.7349C112.086 26.1949 112.018 26.6825 112.047 27.1692C111.993 28.1548 112.331 29.1217 112.987 29.8592C113.275 30.182 113.63 30.4385 114.027 30.6111C114.424 30.7837 114.854 30.8683 115.287 30.8592C115.719 30.8632 116.147 30.7762 116.543 30.6039C116.939 30.4316 117.295 30.1779 117.587 29.8592C118.201 29.0993 118.537 28.1515 118.537 27.1742C118.537 26.1969 118.201 25.2491 117.587 24.4892V24.4892Z" fill="white"/>
<path d="M139.576 21.2793C140.667 22.5713 141.221 24.2314 141.126 25.9193V34.5893H136.606V26.5293C136.661 25.6883 136.385 24.8593 135.836 24.2193C135.279 23.6874 134.537 23.3907 133.766 23.3907C132.996 23.3907 132.254 23.6874 131.696 24.2193C131.145 24.8578 130.865 25.6869 130.916 26.5293V34.5893H126.376V19.7693H130.916V21.7693C131.4 21.1044 132.043 20.5715 132.786 20.2193C133.607 19.8261 134.507 19.6276 135.416 19.6393C136.187 19.601 136.956 19.7274 137.673 20.0103C138.391 20.2931 139.04 20.7257 139.576 21.2793V21.2793Z" fill="white"/>
<path d="M163.837 26.6291C164.572 27.6097 164.914 28.8305 164.793 30.0505C164.673 31.2705 164.1 32.4011 163.187 33.2191C161.877 34.2016 160.261 34.6871 158.627 34.5891H149.927V15.9291H158.327C159.919 15.8347 161.495 16.294 162.787 17.2291C163.312 17.6512 163.731 18.1903 164.01 18.8032C164.29 19.4161 164.422 20.0859 164.397 20.7591C164.435 21.7459 164.127 22.715 163.527 23.4991C162.938 24.2339 162.134 24.7655 161.227 25.0191C162.262 25.2237 163.189 25.7954 163.837 26.6291V26.6291ZM154.517 23.4791H157.517C158.128 23.5173 158.733 23.3404 159.227 22.9791C159.431 22.8018 159.592 22.5795 159.696 22.3296C159.8 22.0798 159.845 21.8092 159.827 21.5391C159.844 21.2647 159.799 20.9898 159.696 20.7352C159.592 20.4806 159.431 20.2529 159.227 20.0691C158.733 19.7078 158.128 19.5309 157.517 19.5691H154.517V23.4791ZM159.637 30.3991C159.848 30.2131 160.014 29.9812 160.121 29.7212C160.229 29.4611 160.275 29.1799 160.257 28.8991C160.272 28.61 160.221 28.3213 160.108 28.0547C159.996 27.788 159.824 27.5502 159.607 27.3591C159.098 26.9613 158.462 26.7622 157.817 26.7991H154.517V30.9191H157.867C158.486 30.9504 159.097 30.7667 159.597 30.3991H159.637Z" fill="white"/>
<path d="M182.097 19.7692V34.6092H177.517V32.6092C177.034 33.2826 176.391 33.8256 175.647 34.1892C174.834 34.5948 173.935 34.8005 173.027 34.7892C171.976 34.8112 170.94 34.5486 170.027 34.0292C169.158 33.5129 168.462 32.7508 168.027 31.8392C167.526 30.7842 167.28 29.6266 167.307 28.4592V19.7692H171.827V27.7692C171.776 28.6096 172.052 29.437 172.597 30.0792C172.862 30.3575 173.185 30.5756 173.542 30.7188C173.899 30.862 174.282 30.9269 174.667 30.9092C175.056 30.9286 175.444 30.8646 175.807 30.7215C176.169 30.5783 176.496 30.3593 176.767 30.0792C177.308 29.4361 177.577 28.6074 177.517 27.7692V19.7692H182.097Z" fill="white"/>
<path d="M185.327 23.1292C185.848 22.0417 186.662 21.1207 187.677 20.4692C188.675 19.8482 189.831 19.5255 191.007 19.5392C191.932 19.534 192.846 19.7427 193.677 20.1492C194.442 20.526 195.096 21.0944 195.577 21.7992V14.9192H200.127V34.5892H195.577V32.4592C195.138 33.1824 194.508 33.7707 193.757 34.1592C192.909 34.601 191.963 34.8212 191.007 34.7992C189.829 34.8144 188.672 34.4879 187.677 33.8592C186.661 33.196 185.847 32.2651 185.327 31.1692C184.766 29.9102 184.476 28.5474 184.476 27.1692C184.476 25.791 184.766 24.4281 185.327 23.1692V23.1292ZM194.637 24.4892C194.339 24.1795 193.982 23.9331 193.587 23.7647C193.191 23.5964 192.766 23.5096 192.337 23.5096C191.907 23.5096 191.482 23.5964 191.087 23.7647C190.692 23.9331 190.334 24.1795 190.037 24.4892C189.7 24.8469 189.438 25.2682 189.266 25.7284C189.095 26.1886 189.017 26.6784 189.037 27.1692C189.018 27.6613 189.097 28.1523 189.268 28.6139C189.44 29.0755 189.701 29.4987 190.037 29.8592C190.325 30.182 190.68 30.4385 191.077 30.6111C191.474 30.7837 191.904 30.8683 192.337 30.8592C192.769 30.8625 193.197 30.7753 193.593 30.603C193.989 30.4308 194.345 30.1774 194.637 29.8592C195.246 29.0969 195.578 28.1501 195.578 27.1742C195.578 26.1983 195.246 25.2515 194.637 24.4892V24.4892Z" fill="white"/>
<path d="M203.376 23.1292C203.898 22.0417 204.712 21.1207 205.727 20.4692C206.725 19.8482 207.881 19.5255 209.057 19.5392C209.982 19.534 210.895 19.7427 211.727 20.1492C212.493 20.5232 213.149 21.0922 213.626 21.7992V14.9192H218.177V34.5892H213.626V32.4592C213.188 33.1824 212.558 33.7707 211.807 34.1592C210.958 34.601 210.012 34.8212 209.057 34.7992C207.879 34.8144 206.722 34.4879 205.727 33.8592C204.71 33.196 203.897 32.2651 203.376 31.1692C202.816 29.9102 202.526 28.5474 202.526 27.1692C202.526 25.791 202.816 24.4281 203.376 23.1692V23.1292ZM212.687 24.4892C212.395 24.17 212.04 23.9159 211.643 23.7436C211.247 23.5713 210.819 23.4846 210.387 23.4892C209.955 23.4865 209.527 23.574 209.131 23.7462C208.735 23.9184 208.379 24.1715 208.087 24.4892C207.759 24.8509 207.506 25.274 207.343 25.734C207.18 26.194 207.11 26.6818 207.137 27.1692C207.085 28.1562 207.427 29.1233 208.087 29.8592C208.375 30.182 208.73 30.4385 209.127 30.6111C209.524 30.7837 209.954 30.8683 210.387 30.8592C210.818 30.8625 211.246 30.7753 211.643 30.603C212.039 30.4308 212.394 30.1774 212.687 29.8592C213.296 29.0969 213.628 28.1501 213.628 27.1742C213.628 26.1983 213.296 25.2515 212.687 24.4892V24.4892Z" fill="white"/>
<path d="M221.797 17.5092C221.555 17.2895 221.363 17.0205 221.233 16.7204C221.104 16.4203 221.04 16.0959 221.047 15.7692C221.038 15.4378 221.101 15.1085 221.231 14.8032C221.36 14.498 221.553 14.2239 221.797 13.9992C222.343 13.5073 223.062 13.2521 223.797 13.2892C224.508 13.2663 225.2 13.5209 225.727 13.9992C225.97 14.2239 226.163 14.498 226.293 14.8032C226.422 15.1085 226.485 15.4378 226.477 15.7692C226.483 16.0959 226.419 16.4203 226.29 16.7204C226.161 17.0205 225.969 17.2895 225.727 17.5092C225.199 17.9848 224.507 18.2359 223.797 18.2092C223.064 18.2501 222.344 17.9984 221.797 17.5092V17.5092ZM226.017 19.7692V34.6092H221.517V19.7692H226.017Z" fill="white"/>
<path d="M243.216 28.2591H232.926C232.941 29.0507 233.26 29.8063 233.816 30.3691C234.337 30.8601 235.031 31.126 235.746 31.1091C236.242 31.1438 236.736 31.024 237.161 30.766C237.585 30.5081 237.919 30.1248 238.116 29.6691H242.946C242.705 30.6359 242.247 31.5352 241.606 32.2991C240.944 33.0866 240.114 33.7154 239.176 34.1391C238.037 34.6165 236.807 34.8397 235.572 34.7931C234.337 34.7464 233.127 34.4311 232.026 33.8691C230.901 33.2588 229.977 32.3347 229.366 31.2091C228.697 29.983 228.353 28.6059 228.366 27.2091C228.342 25.8171 228.669 24.4415 229.316 23.2091C229.916 22.0825 230.834 21.1573 231.956 20.5491C233.159 19.9114 234.505 19.5913 235.866 19.6191C237.2 19.5935 238.517 19.9066 239.696 20.5291C240.797 21.1181 241.706 22.0099 242.316 23.0991C242.96 24.3002 243.284 25.6467 243.256 27.0091C243.264 27.4262 243.251 27.8434 243.216 28.2591V28.2591ZM238.646 25.7691C238.66 25.4176 238.595 25.0677 238.456 24.7443C238.318 24.421 238.11 24.1323 237.846 23.8991C237.286 23.4339 236.575 23.1886 235.846 23.2091C235.128 23.1834 234.428 23.4348 233.89 23.9114C233.352 24.3879 233.018 25.053 232.956 25.7691H238.646Z" fill="white"/>
<path d="M248.266 34.1393C247.327 33.7478 246.504 33.121 245.876 32.3193C245.293 31.5708 244.945 30.6659 244.876 29.7193H249.376C249.398 29.9665 249.472 30.2062 249.595 30.422C249.717 30.6378 249.885 30.8245 250.086 30.9693C250.543 31.298 251.095 31.4667 251.656 31.4493C252.12 31.4775 252.581 31.3623 252.976 31.1193C253.142 31.0211 253.275 30.8775 253.361 30.7056C253.446 30.5337 253.481 30.3408 253.459 30.1498C253.438 29.9589 253.363 29.7782 253.242 29.6291C253.12 29.48 252.959 29.369 252.776 29.3093C252.079 29.0248 251.36 28.7973 250.626 28.6292C249.722 28.4325 248.834 28.1719 247.966 27.8493C247.255 27.574 246.623 27.1275 246.126 26.5493C245.586 25.866 245.312 25.0094 245.356 24.1393C245.352 23.3086 245.599 22.4961 246.066 21.8093C246.585 21.0709 247.303 20.4952 248.136 20.1493C249.169 19.7224 250.279 19.5147 251.396 19.5393C252.982 19.4507 254.546 19.9411 255.796 20.9193C256.868 21.8533 257.529 23.1717 257.636 24.5893H253.436C253.411 24.3516 253.339 24.1213 253.224 23.9119C253.109 23.7024 252.954 23.518 252.766 23.3693C252.329 23.0522 251.796 22.8935 251.256 22.9193C250.829 22.8918 250.403 22.9965 250.036 23.2193C249.903 23.3142 249.795 23.4404 249.722 23.5869C249.649 23.7334 249.612 23.8956 249.616 24.0593C249.604 24.2761 249.663 24.491 249.784 24.6714C249.905 24.8518 250.081 24.9879 250.286 25.0593C250.972 25.3385 251.681 25.5527 252.406 25.6993C253.316 25.9217 254.211 26.1989 255.086 26.5293C255.792 26.8181 256.417 27.2746 256.906 27.8593C257.466 28.554 257.753 29.4282 257.716 30.3193C257.73 31.1541 257.474 31.9711 256.986 32.6493C256.452 33.3732 255.724 33.9314 254.886 34.2593C253.88 34.6656 252.802 34.863 251.716 34.8393C250.53 34.8469 249.356 34.6085 248.266 34.1393V34.1393Z" fill="white"/>
</svg>
