<svg width="31" height="31" viewBox="0 0 31 31" fill="none" xmlns="http://www.w3.org/2000/svg">
<path d="M15.5 0C12.4344 0 9.43763 0.909059 6.88867 2.61222C4.33971 4.31538 2.35303 6.73615 1.17987 9.5684C0.00671591 12.4007 -0.300236 15.5172 0.297835 18.5239C0.895906 21.5306 2.37214 24.2924 4.53985 26.4601C6.70756 28.6279 9.4694 30.1041 12.4761 30.7022C15.4828 31.3002 18.5993 30.9933 21.4316 29.8201C24.2638 28.647 26.6846 26.6603 28.3878 24.1113C30.0909 21.5624 31 18.5656 31 15.5C30.9953 11.3906 29.3607 7.45086 26.4549 4.54507C23.5491 1.63928 19.6094 0.00473343 15.5 0ZM17.2873 22.6527C17.2873 22.9689 17.1617 23.2721 16.9381 23.4957C16.7145 23.7193 16.4112 23.845 16.095 23.845C15.7787 23.845 15.4755 23.7193 15.2519 23.4957C15.0283 23.2721 14.9027 22.9689 14.9027 22.6527V10.5747L13.1817 11.7216C13.0515 11.8103 12.905 11.8723 12.7506 11.904C12.5963 11.9357 12.4372 11.9365 12.2825 11.9064C12.1279 11.8763 11.9807 11.8158 11.8496 11.7284C11.7184 11.6411 11.6059 11.5286 11.5185 11.3975C11.4311 11.2664 11.3705 11.1193 11.3403 10.9646C11.3101 10.81 11.3109 10.6509 11.3426 10.4965C11.3742 10.3422 11.4362 10.1956 11.5248 10.0654C11.6134 9.93509 11.727 9.82368 11.859 9.73757L15.4337 7.35415C15.6132 7.23447 15.8219 7.16576 16.0374 7.15535C16.253 7.14494 16.4673 7.19322 16.6576 7.29504C16.8478 7.39686 17.0069 7.54841 17.1178 7.73352C17.2287 7.91863 17.2873 8.13036 17.2873 8.34615V22.6527Z" fill="#00C2D0"/>
</svg>
