<svg xmlns="http://www.w3.org/2000/svg" viewBox="0 0 847.73 847.73"><defs><style>.in-symbol{fill:#010101;}</style></defs><title>svg</title><g id="smiles"><path class="in-symbol" d="M460.22,609.36a20.5,20.5,0,1,0,0,41h0a20.5,20.5,0,0,0,0-41Z"/><path class="in-symbol" d="M531.75,197.36H316A118.75,118.75,0,0,0,197.36,316V531.75A118.75,118.75,0,0,0,316,650.36h70.55a20.5,20.5,0,0,0,0-41H316a77.71,77.71,0,0,1-77.62-77.61V316A77.71,77.71,0,0,1,316,238.36H531.75A77.71,77.71,0,0,1,609.36,316V456a20.5,20.5,0,0,0,41,0V316A118.75,118.75,0,0,0,531.75,197.36Z"/><path class="in-symbol" d="M629.86,511.25a20.5,20.5,0,0,0-20.5,20.5,77.7,77.7,0,0,1-77.61,77.61,20.5,20.5,0,0,0,0,41A118.75,118.75,0,0,0,650.36,531.75,20.49,20.49,0,0,0,629.86,511.25Z"/><path class="in-symbol" d="M325.61,498.9a20.5,20.5,0,0,0,41,0V394.72a20.5,20.5,0,0,0-41,0Z"/><path class="in-symbol" d="M326.5,354.78a17.7,17.7,0,0,0,.68,1.89,20.07,20.07,0,0,0,.85,1.82c.32.59.66,1.17,1,1.72a18.82,18.82,0,0,0,1.2,1.62c.42.52.88,1,1.35,1.5s1,.92,1.5,1.35a19.28,19.28,0,0,0,1.62,1.19,18.61,18.61,0,0,0,1.72,1c.59.32,1.2.6,1.82.86s1.25.48,1.88.68,1.3.36,2,.49,1.33.23,2,.3a20.35,20.35,0,0,0,4,0c.67-.07,1.34-.17,2-.3s1.31-.3,1.95-.49,1.27-.43,1.89-.68,1.22-.54,1.81-.86a18.61,18.61,0,0,0,1.72-1,19.28,19.28,0,0,0,1.62-1.19c.52-.43,1-.88,1.5-1.35s.93-1,1.36-1.5.82-1.06,1.19-1.62.71-1.13,1-1.72a20.07,20.07,0,0,0,.85-1.82,17.7,17.7,0,0,0,.68-1.89,18.35,18.35,0,0,0,.49-1.94,17.08,17.08,0,0,0,.3-2,20.35,20.35,0,0,0,0-4,16.46,16.46,0,0,0-.3-2,21,21,0,0,0-2-5.65c-.32-.59-.66-1.17-1-1.73s-.77-1.1-1.19-1.62-.89-1-1.36-1.49a19.61,19.61,0,0,0-3.12-2.55,18.61,18.61,0,0,0-1.72-1c-.59-.31-1.2-.6-1.81-.86s-1.25-.48-1.89-.67-1.29-.36-1.95-.5-1.32-.23-2-.3a20.87,20.87,0,0,0-4,0c-.66.07-1.33.17-2,.3s-1.31.3-2,.5-1.27.42-1.88.67-1.23.55-1.82.86a18.61,18.61,0,0,0-1.72,1,20.23,20.23,0,0,0-4.47,4,18.82,18.82,0,0,0-1.2,1.62c-.37.56-.71,1.14-1,1.73a21.4,21.4,0,0,0-1.53,3.7c-.19.64-.36,1.29-.49,1.95s-.23,1.32-.3,2a20.35,20.35,0,0,0,0,4c.07.66.17,1.33.3,2S326.31,354.15,326.5,354.78Z"/><path class="in-symbol" d="M522.12,498.9V447.49a73,73,0,0,0-20.87-51.15,70.66,70.66,0,0,0-85.31-12.86,20.49,20.49,0,0,0-37.63,11.24V498.9a20.5,20.5,0,0,0,41,0V447.49c0-17.29,14.15-31.9,30.9-31.9s30.91,14.61,30.91,31.9V498.9a20.5,20.5,0,0,0,41,0Z"/></g></svg>