<?xml version="1.0" encoding="utf-8"?>
<!-- Generator: Adobe Illustrator 22.1.0, SVG Export Plug-In . SVG Version: 6.00 Build 0)  -->
<svg version="1.1" xmlns="http://www.w3.org/2000/svg" xmlns:xlink="http://www.w3.org/1999/xlink" x="0px" y="0px"
	 viewBox="0 0 100 100" style="enable-background:new 0 0 100 100;" xml:space="preserve">
<style type="text/css">
	.st0{fill:#E7005D;}
	.st1{fill:#FFE12E;}
	.st2{fill:#00C2D0;}
	.st3{fill:#130523;}
</style>
<g id="Layer_5">
</g>
<g id="Layer_2">
	<g>
		<path class="st0" d="M33.9,65.4"/>
		<path class="st0" d="M44,65.5V55.3c8.2,0.1,25.5,0.3,25.5,0.3v28c3.3,0,6.6,0,9.8,0l-0.6-58.1H68.4c-0.2,5.9-0.2,10.5-0.2,10.5
			C65,36,61.7,36,58.4,36C58.3,41.8,58.2,46,58.2,46c-8.5-0.1-17-0.1-25.5,0V17.6H20.8l1,56.9c3.2,0.4,7.9,0.6,12.1,0.7l0-9.7
			L44,65.5z"/>
	</g>
</g>
<g id="Layer_3">
	<g>
		<g>
			<path class="st1" d="M68.4,25.6h-9.9c0,3.7,0,7.3-0.1,10.4c3.3,0,6.5,0,9.8,0.1C68.2,36.1,68.2,31.5,68.4,25.6z"/>
			<path class="st1" d="M79.4,94l-0.1-10.3c-3.3,0-6.5,0-9.8,0v-28c0,0-17.3-0.2-25.5-0.3v10.1l15.5,0.2v28L79.4,94z"/>
			<path class="st1" d="M20.8,17.6H10.6c0,0,0.6,51.2,1.2,75.8l22.1,0.1V75.1c-4.2-0.1-8.9-0.2-12.1-0.7L20.8,17.6z"/>
		</g>
	</g>
</g>
<g id="Layer_4">
	<g>
		<path class="st2" d="M42.8,35.9V7.5H20.7l0.2,10h11.9V46c8.5-0.1,17-0.1,25.5,0c0,0,0.3-9.6,0.3-10.1C53.3,35.9,48,35.9,42.8,35.9
			z"/>
		<path class="st2" d="M89.1,6H68.5v0.3c0,5.4-0.1,13.1-0.2,19.3h10.3l0.6,58.1c3.4,0,6.8,0,10.1,0L89.1,6z"/>
		<path class="st2" d="M33.9,75.1c5.4,0.1,10,0,10,0v-9.7h-10V75.1z"/>
	</g>
</g>
<g id="Layer_6">
	<path class="st3" d="M91.2,6c0-1.1-0.9-2.1-2.1-2.1c0,0,0,0,0,0s0,0,0,0H68.5c-1.1,0-2.1,0.9-2.1,2.1c0,5.8-0.1,11.7-0.1,17.5h-7.8
		c-1.1,0-2.1,0.9-2.1,2.1c0,1.8,0,3.6,0,5.4c0,0,0,0.1,0,0.1c0,0.9,0,1.8,0,2.7c-3.8,0-7.7,0-11.5,0V7.5c0-1.1-0.9-2.1-2.1-2.1H20.6
		c-1.1,0-2.1,0.9-2.1,2.1l0.1,8h-8.1c-1.1,0-2.1,0.9-2.1,2.1C8.8,42.8,9,68.1,9.7,93.4c0,1.1,0.9,2.1,2.1,2.1l22.1,0.1
		c1.1,0,2.1-0.9,2.1-2.1V77.2c2.6,0,5.3,0,8,0c1.1,0,2.1-0.9,2.1-2.1v-7.5l11.3,0.2c0,8.7,0,17.3,0,26c0,1.1,0.9,2.1,2.1,2.1l20,0.3
		c1.1,0,2.1-0.9,2.1-2.1l-0.1-8.2c2.7,0,5.4,0,8,0c1.1,0,2.1-0.9,2.1-2.1L91.2,6z M59.4,63.6L46,63.5v-6.1c7.1,0,14.2,0.1,21.4,0.2
		c0,8.7-0.1,17.3,0,26c0,0,0,0,0,0.1c0,0,0,0,0,0c0,1.1,0.9,2.1,2.1,2.1c2.6,0,5.2,0,7.8,0l0.1,6.1l-15.8-0.2c0-8.7,0-17.3,0-26
		C61.5,64.6,60.6,63.7,59.4,63.6z M36,67.4l5.9,0V73c-2,0-3.9,0-5.9,0V67.4z M33.9,63.2c-1.1,0-2.1,0.9-2.1,2.1c0,0,0,0,0,0
		c0,0,0,0,0,0V73c-2.7-0.1-5.3-0.2-8-0.4l-1-52.9h7.7V46c0,1.1,0.9,2.1,2.1,2.1c8.5-0.1,17-0.1,25.5,0c1.1,0,2.1-0.9,2.1-2.1
		c0.1-2.7,0.1-5.3,0.2-8c2.6,0,5.2,0,7.8,0.1c0.7,0,1.3-0.3,1.6-0.8c0.3-0.3,0.5-0.8,0.5-1.3c0-2.8,0.1-5.6,0.1-8.4h6.2l0.5,54
		c-1.9,0-3.8,0-5.7,0c0-8.7,0-17.3,0-26c0-1.1-0.9-2.1-2.1-2.1c-8.5-0.1-17-0.2-25.5-0.3c-1.1,0-2.1,0.9-2.1,2.1v8L33.9,63.2z
		 M18.7,19.6l1,54.8c0,1,0.7,1.7,1.4,1.9c0.2,0.1,0.4,0.2,0.7,0.2c3.3,0.4,6.7,0.5,10,0.6v14.2l-18-0.1c-0.6-23.9-0.9-47.8-1.2-71.7
		H18.7z M66.2,34c-1.9,0-3.8,0-5.6-0.1c0,0,0,0,0,0c0-1,0-1.9,0-2.9h0c0-1.1,0-2.2,0-3.4h5.7C66.2,29.8,66.2,31.9,66.2,34z
		 M81.4,81.6l-0.5-56c0-1.1-0.9-2.1-2.1-2.1h-8.3c0-5.1,0.1-10.3,0.1-15.4h16.5l0.3,73.6C85.4,81.6,83.4,81.6,81.4,81.6z M56.3,38
		c0,2-0.1,4-0.2,6c-7.1-0.1-14.3-0.1-21.4,0V18c0-0.1,0.1-0.3,0.1-0.5c0-1.1-0.9-2.1-2.1-2.1h-9.9l-0.1-5.8h18V36
		c0,1.1,0.9,2.1,2.1,2.1C47.3,38,51.8,38,56.3,38z"/>
</g>
</svg>
