<svg xmlns="http://www.w3.org/2000/svg" viewBox="0 0 99.62 99.74"><defs><style>.cls-1{fill:#fff;}</style></defs><title>at</title><g id="Layer_1" data-name="Layer 1"><path class="cls-1" d="M94.86,40.07a78.65,78.65,0,0,0-3.1-14.3,29,29,0,0,0-7.9-12.1,38.93,38.93,0,0,0-13.8-8.2c-5.9-2-12.9-3.1-21.6-3.1a55.83,55.83,0,0,0-19.1,3.1,44,44,0,0,0-13.2,8.4A34.22,34.22,0,0,0,8,26a41,41,0,0,0-3.4,14.1,17.16,17.16,0,0,0-.3,4.2v11.5a17.16,17.16,0,0,0,.3,4.2,42,42,0,0,0,3.7,14.3,36.39,36.39,0,0,0,8.4,11.8,41.37,41.37,0,0,0,13.5,8.2c5.3,2.3,11.5,3.1,18.3,3.1A58.34,58.34,0,0,0,63.06,96a54.49,54.49,0,0,0,11.2-3.7h.1a4.75,4.75,0,0,0,.1-8.6l-.7-.4a12.08,12.08,0,0,0-9.5-.5h-.1a28.61,28.61,0,0,1-6.2,1.4,87.56,87.56,0,0,1-9.6.3,43.16,43.16,0,0,1-12.6-1.7,24.25,24.25,0,0,1-9-5.1,24.87,24.87,0,0,1-5.9-8.1,29,29,0,0,1-2.8-10.1,17.16,17.16,0,0,1-.3-4.2c0-1.7-.2-3.4-.2-5.4,0-1.7.3-3.4.3-5.1a17.16,17.16,0,0,1,.3-4.2,39.34,39.34,0,0,1,2.5-10.1,27.84,27.84,0,0,1,5.6-8.1,29.51,29.51,0,0,1,9.3-5.1,44.23,44.23,0,0,1,12.9-2A58,58,0,0,1,63.66,17a23.13,23.13,0,0,1,9.6,4.5,19.78,19.78,0,0,1,5.6,7.9,57.81,57.81,0,0,1,2.5,11.2,43,43,0,0,1,.3,5.9,45,45,0,0,1-.3,6.2A8.86,8.86,0,0,1,80,58a5.56,5.56,0,0,1-3.9,1.4,7,7,0,0,1-4.2-1.4,6,6,0,0,1-1.7-4.5V29.87a3.29,3.29,0,0,0-.8-2.2,3.24,3.24,0,0,0-2.3-.8h-7.3a4,4,0,0,0-2.2.8,3,3,0,0,0-.8,2.2V31a12.56,12.56,0,0,0-3.9-3.7c-1.4-1.1-3.9-1.4-7-1.4a17.31,17.31,0,0,0-7.6,1.7,16.25,16.25,0,0,0-5.9,4.8,25.56,25.56,0,0,0-3.7,7.6,36.72,36.72,0,0,0-1.1,9.8,36.67,36.67,0,0,0,1.1,9.6,18.87,18.87,0,0,0,3.9,7.6,15.69,15.69,0,0,0,5.9,4.8,19.33,19.33,0,0,0,7.9,1.7,19.16,19.16,0,0,0,6.2-.6,11.81,11.81,0,0,0,3.9-1.4,10.44,10.44,0,0,0,2.8-2.3,15.72,15.72,0,0,0,2-2.3,14.4,14.4,0,0,0,5.3,3.7c2.2,1.1,5.3,1.7,9.6,1.7a19.7,19.7,0,0,0,6.5-1.1,20.23,20.23,0,0,0,5.9-3.4,22.18,22.18,0,0,0,4.5-5.6,24.8,24.8,0,0,0,2-7.9c0-2.3.3-4.5.3-7.3C95.16,44.57,94.86,42,94.86,40.07ZM54.36,58a7.64,7.64,0,0,1-5.9,2.5,6.72,6.72,0,0,1-5.3-2.5c-1.7-1.7-2.5-4.5-2.5-8.1,0-3.9.8-6.8,2.5-8.4a6.86,6.86,0,0,1,5.3-2.5,7.64,7.64,0,0,1,5.9,2.5c1.4,1.7,2.2,4.5,2.2,8.4S55.76,56.37,54.36,58Z"/></g></svg>