<svg xmlns="http://www.w3.org/2000/svg" viewBox="0 0 847.73 847.73"><defs><style>.at-symbol{fill:#010101;}</style></defs><title>svg</title><g id="smiles"><path class="at-symbol" d="M423.86,539.28A115.42,115.42,0,1,1,539.28,423.86,115.55,115.55,0,0,1,423.86,539.28Zm0-189.84a74.42,74.42,0,1,0,74.42,74.42A74.51,74.51,0,0,0,423.86,349.44Z"/><path class="at-symbol" d="M596.34,539.28a98.16,98.16,0,0,1-98.06-98V328.94a20.5,20.5,0,0,1,41,0V441.23a57.06,57.06,0,0,0,114.11,0V423.86a20.5,20.5,0,0,1,41,0v17.37A98.16,98.16,0,0,1,596.34,539.28Z"/><path class="at-symbol" d="M423.86,683.21a260.8,260.8,0,0,1-52.24-5.27,20.5,20.5,0,1,1,8.22-40.17,219.57,219.57,0,0,0,44,4.44,216.63,216.63,0,0,0,91.22-19.9,20.5,20.5,0,0,1,17.15,37.24A257.29,257.29,0,0,1,423.86,683.21Z"/><path class="at-symbol" d="M313.83,656.41a19.52,19.52,0,0,1-2-.1c-.66-.07-1.33-.17-2-.3s-1.31-.3-1.95-.49-1.27-.43-1.88-.68-1.23-.54-1.82-.86a18.61,18.61,0,0,1-1.72-1,19.28,19.28,0,0,1-1.62-1.19c-.52-.43-1-.88-1.5-1.35s-.93-1-1.35-1.5a18.82,18.82,0,0,1-1.2-1.62c-.37-.56-.71-1.14-1-1.72a20.07,20.07,0,0,1-.85-1.82,18.53,18.53,0,0,1-.68-1.89,19,19,0,0,1-.49-1.94,17.08,17.08,0,0,1-.3-2,18.6,18.6,0,0,1,0-4,16.6,16.6,0,0,1,.3-2,21,21,0,0,1,2-5.65c.32-.59.66-1.17,1-1.73a18.82,18.82,0,0,1,1.2-1.62,19.09,19.09,0,0,1,1.35-1.49,19.61,19.61,0,0,1,3.12-2.55,18.61,18.61,0,0,1,1.72-1c.59-.32,1.2-.6,1.82-.86s1.25-.48,1.88-.68,1.3-.36,1.95-.49,1.33-.23,2-.3a20.87,20.87,0,0,1,4,0c.67.07,1.34.17,2,.3s1.31.3,1.95.49,1.27.43,1.89.68,1.22.54,1.81.86,1.17.66,1.73,1,1.1.77,1.61,1.19a17.68,17.68,0,0,1,1.5,1.36,19.22,19.22,0,0,1,1.36,1.49c.42.52.82,1.06,1.19,1.62s.72,1.14,1,1.73.6,1.19.86,1.81.48,1.25.67,1.89.36,1.29.5,1.95.23,1.32.3,2,.1,1.35.1,2,0,1.35-.1,2-.17,1.33-.3,2-.3,1.3-.5,1.94-.42,1.27-.67,1.89-.55,1.23-.86,1.82-.66,1.16-1,1.72-.77,1.1-1.19,1.62-.88,1-1.36,1.5a19.44,19.44,0,0,1-1.5,1.35c-.51.42-1.06.82-1.61,1.19s-1.14.72-1.73,1-1.2.6-1.81.86-1.26.48-1.89.68-1.3.36-1.95.49-1.32.23-2,.3A19.32,19.32,0,0,1,313.83,656.41Z"/><path class="at-symbol" d="M260.06,618.19A20.43,20.43,0,0,1,246,612.61a259.38,259.38,0,0,1,308.22-413,261,261,0,0,1,92.92,92.24,20.5,20.5,0,0,1-35.28,20.89,218.19,218.19,0,0,0-188-107.22A218.28,218.28,0,0,0,274.12,582.77a20.5,20.5,0,0,1-14.06,35.42Z"/><path class="at-symbol" d="M654.91,383.45A20.63,20.63,0,0,1,635,368.08l0-.1a20.5,20.5,0,1,1,25.07,14.8A20,20,0,0,1,654.91,383.45Z"/><path class="at-symbol" d="M583.15,622.35c-.67,0-1.35,0-2-.1s-1.33-.17-2-.3-1.31-.3-1.94-.5-1.28-.42-1.89-.67-1.23-.55-1.82-.86a18.61,18.61,0,0,1-1.72-1c-.56-.37-1.1-.77-1.62-1.19s-1-.89-1.5-1.36a19.24,19.24,0,0,1-1.35-1.5c-.42-.51-.83-1.06-1.2-1.61s-.71-1.14-1-1.73-.6-1.2-.85-1.81a18.53,18.53,0,0,1-.68-1.89c-.19-.64-.36-1.3-.49-1.95s-.23-1.32-.3-2a20.35,20.35,0,0,1,0-4c.07-.66.17-1.33.3-2s.3-1.31.49-2a19.43,19.43,0,0,1,.68-1.89c.25-.61.54-1.22.85-1.81s.66-1.17,1-1.72a21.18,21.18,0,0,1,2.55-3.12c.48-.47,1-.93,1.5-1.35s1.06-.83,1.62-1.2,1.13-.71,1.72-1a20.07,20.07,0,0,1,1.82-.85,17.7,17.7,0,0,1,1.89-.68,18.35,18.35,0,0,1,1.94-.49,17.08,17.08,0,0,1,2-.3,19.39,19.39,0,0,1,4,0,16.46,16.46,0,0,1,2,.3,21,21,0,0,1,5.65,2c.59.32,1.17.66,1.73,1s1.1.78,1.62,1.2a19.09,19.09,0,0,1,1.49,1.35,19.61,19.61,0,0,1,2.55,3.12,18.61,18.61,0,0,1,1,1.72c.31.59.6,1.2.86,1.81s.48,1.26.67,1.89a19.17,19.17,0,0,1,.49,2,17.08,17.08,0,0,1,.3,2,18.51,18.51,0,0,1,0,4,16.46,16.46,0,0,1-.3,2,19.17,19.17,0,0,1-.49,1.95,18.53,18.53,0,0,1-.68,1.89c-.25.61-.54,1.22-.85,1.81s-.66,1.17-1,1.73-.77,1.1-1.19,1.61a19.36,19.36,0,0,1-1.36,1.5c-.47.47-1,.93-1.49,1.36s-1.07.82-1.62,1.19-1.14.72-1.73,1-1.19.6-1.81.86-1.25.48-1.89.67-1.29.36-2,.5-1.32.23-2,.3S583.82,622.35,583.15,622.35Z"/></g></svg>