<svg width="10" height="11" viewBox="0 0 10 11" fill="none" xmlns="http://www.w3.org/2000/svg">
<path d="M5 0.826172C4.0111 0.826172 3.0444 1.11942 2.22215 1.66882C1.39991 2.21823 0.759043 2.99912 0.380605 3.91275C0.00216642 4.82638 -0.0968503 5.83172 0.0960759 6.80162C0.289002 7.77153 0.765206 8.66244 1.46447 9.3617C2.16373 10.061 3.05465 10.5372 4.02455 10.7301C4.99446 10.923 5.99979 10.824 6.91342 10.4456C7.82705 10.0671 8.60794 9.42627 9.15735 8.60402C9.70676 7.78178 10 6.81508 10 5.82617C9.99848 4.50056 9.4712 3.22968 8.53385 2.29232C7.5965 1.35497 6.32562 0.827699 5 0.826172ZM6.15385 7.74886V7.74925C6.25585 7.74925 6.35368 7.78977 6.42581 7.8619C6.49794 7.93403 6.53846 8.03186 6.53846 8.13386C6.53846 8.23587 6.49794 8.3337 6.42581 8.40583C6.35368 8.47796 6.25585 8.51848 6.15385 8.51848C6.15318 8.51848 6.15265 8.51809 6.15193 8.51809H3.84616C3.77474 8.51809 3.70474 8.49821 3.64398 8.46068C3.58323 8.42315 3.53412 8.36945 3.50215 8.30559C3.47019 8.24173 3.45662 8.17024 3.46299 8.09911C3.46935 8.02798 3.49538 7.96003 3.53818 7.90285L5.64904 5.08699C5.67198 5.05002 5.69207 5.01135 5.70914 4.97132C5.72883 4.92443 5.74393 4.87574 5.75423 4.82593C5.7745 4.72337 5.77424 4.61781 5.75346 4.51535C5.74328 4.4667 5.72844 4.41914 5.70914 4.37333C5.68933 4.32723 5.66545 4.28299 5.63779 4.24112C5.61023 4.20116 5.57904 4.16382 5.54462 4.12958C5.51003 4.09434 5.47203 4.06263 5.43116 4.03492C5.38941 4.00695 5.34515 3.98294 5.29894 3.96319C5.25268 3.9437 5.20463 3.92873 5.15548 3.91848C5.05282 3.8982 4.94718 3.8982 4.84452 3.91848C4.74646 3.93888 4.65332 3.97819 4.57029 4.0342C4.52959 4.06153 4.49161 4.09272 4.45688 4.12733C4.42103 4.16345 4.38859 4.2028 4.35995 4.24487C4.33313 4.28554 4.31001 4.32853 4.29087 4.37333C4.27114 4.4198 4.24245 4.46192 4.20644 4.4973C4.17043 4.53268 4.12781 4.56062 4.081 4.57952C4.03419 4.59843 3.98412 4.60792 3.93364 4.60748C3.88317 4.60703 3.83327 4.59665 3.78681 4.57692C3.74034 4.55719 3.69822 4.5285 3.66284 4.49249C3.62746 4.45648 3.59952 4.41386 3.58062 4.36705C3.56172 4.32024 3.55222 4.27017 3.55266 4.21969C3.55311 4.16921 3.56349 4.11932 3.58322 4.07285C3.62142 3.98183 3.66847 3.89477 3.7237 3.81295C3.77945 3.73067 3.84284 3.65384 3.91303 3.58348C4.0533 3.4441 4.21872 3.33258 4.40053 3.25483C4.59 3.17493 4.79353 3.1337 4.99916 3.13357C5.20478 3.13344 5.40836 3.1744 5.59793 3.25406C5.69007 3.29304 5.77815 3.34098 5.86092 3.39718C5.94291 3.45223 6.01916 3.51538 6.08851 3.58569C6.22893 3.7249 6.34048 3.89045 6.41678 4.07285C6.49748 4.26239 6.53888 4.46633 6.53846 4.67233C6.53857 4.77576 6.52826 4.87894 6.50769 4.98031C6.48694 5.08019 6.45649 5.17782 6.41678 5.2718C6.37858 5.36282 6.33153 5.44988 6.2763 5.5317L4.61539 7.74925L6.15385 7.74886Z" fill="#00C2D0"/>
</svg>
