<svg xmlns="http://www.w3.org/2000/svg" viewBox="0 0 847.73 847.73"><defs><style>.ig-symbol{fill:#010101;}</style></defs><title>svg</title><g id="smiles"><path class="ig-symbol" d="M532.78,650.36H455a20.5,20.5,0,0,1,0-41h77.74a76.66,76.66,0,0,0,76.58-76.58V314.94a76.67,76.67,0,0,0-76.58-76.58H314.94a76.67,76.67,0,0,0-76.58,76.58V461.83a20.5,20.5,0,1,1-41,0V314.94A117.72,117.72,0,0,1,314.94,197.36H532.78A117.71,117.71,0,0,1,650.36,314.94V532.78A117.71,117.71,0,0,1,532.78,650.36Z"/><path class="ig-symbol" d="M385.55,650.36a20.5,20.5,0,0,1-.08-41h.08a20.5,20.5,0,1,1,0,41Z"/><path class="ig-symbol" d="M314.94,650.36A117.71,117.71,0,0,1,197.36,532.78a20.5,20.5,0,0,1,41,0,76.67,76.67,0,0,0,76.58,76.58,20.5,20.5,0,0,1,0,41Z"/><path class="ig-symbol" d="M423.86,539.28A115.42,115.42,0,1,1,539.28,423.86,115.55,115.55,0,0,1,423.86,539.28Zm0-189.84a74.42,74.42,0,1,0,74.42,74.42A74.51,74.51,0,0,0,423.86,349.44Z"/><path class="ig-symbol" d="M542.72,324.84a20.5,20.5,0,0,1-.08-41h.08a20.5,20.5,0,0,1,0,41Z"/></g></svg>