<svg width="56" height="58" viewBox="0 0 56 58" fill="none" xmlns="http://www.w3.org/2000/svg">
<g clip-path="url(#clip0)">
<path d="M46.71 13.684L47.0036 56.1832L33.7893 55.9603L33.8565 38.5468C33.8565 38.5468 22.4176 38.365 16.9908 38.3183L16.9235 55.7576L2.28111 55.6495C1.8917 40.3497 1.64844 8.52246 1.64844 8.52246L16.291 8.57896L16.2227 26.2762C21.8421 26.2291 27.4642 26.2508 33.0891 26.3413C33.0891 26.3413 33.3143 20.1506 33.3397 13.5894L46.71 13.684Z" fill="#EA736B"/>
<path fill-rule="evenodd" clip-rule="evenodd" d="M8.40073 8.54856L8.94152 43.9113C11.0728 44.1775 14.1565 44.3012 16.9567 44.355L16.9127 55.7576L2.27037 55.6495C1.881 40.3411 1.6377 8.52246 1.6377 8.52246L8.40073 8.54856ZM39.7486 20.1756C39.7486 20.1756 39.7596 17.3293 39.8744 13.6578L33.331 13.6325C33.3222 15.9113 33.3136 18.1386 33.2512 20.0818C35.4202 20.0901 37.5799 20.0985 39.7486 20.1756ZM40.4472 49.743L40.5143 32.3381C40.5143 32.3381 29.0662 32.1563 23.6395 32.0838L23.6152 38.3784L33.8463 38.5297L33.779 55.9604L46.9933 56.1834L46.9448 49.7853C44.7849 49.7855 42.616 49.7771 40.4472 49.743Z" fill="#FFC700"/>
<path fill-rule="evenodd" clip-rule="evenodd" d="M53.6214 1.53407L40.0221 1.48159L40.0214 1.67078C40.0084 5.03308 39.9351 9.79686 39.8744 13.6577L46.7107 13.6841L46.9465 49.8024L53.6547 49.8283L53.6214 1.53407ZM16.2121 26.2764L16.2803 8.57914L8.43742 8.54887L8.34251 2.31396L22.9851 2.37046L22.917 19.9989L33.295 20.039L33.0785 26.3415C27.4535 26.251 21.8314 26.2293 16.2121 26.2764ZM16.9577 44.3379L16.9809 38.3184L23.6158 38.344L23.5926 44.3635C23.5926 44.3635 20.5174 44.4118 16.9577 44.3379Z" fill="#61D0E9"/>
<path fill-rule="evenodd" clip-rule="evenodd" d="M10.297 42.7476L9.77405 8.55387C9.77062 8.21314 9.62573 7.88707 9.37024 7.64514C9.11475 7.4032 8.76887 7.26454 8.40628 7.25869L1.64325 7.23259C1.28135 7.2378 0.935724 7.37449 0.678865 7.61398C0.422006 7.85348 0.273871 8.17718 0.265531 8.51718C0.387944 24.2287 0.510358 39.9403 0.898201 55.6442C0.901626 55.985 1.04652 56.311 1.30201 56.553C1.5575 56.7949 1.90338 56.9336 2.26596 56.9394L16.9083 57.0475C17.2709 57.0445 17.6179 56.9085 17.8752 56.6685C18.1326 56.4286 18.28 56.1036 18.286 55.7629L18.33 44.3603C18.3266 44.0196 18.1817 43.6935 17.9262 43.4516C17.6707 43.2096 17.3249 43.071 16.9623 43.0651C14.734 43.0137 12.5121 42.9325 10.297 42.7476ZM8.46476 45.0802C7.97469 44.9253 7.57731 44.5335 7.56935 43.906L7.04829 9.83326L3.02107 9.81772C3.13698 24.6706 3.25938 39.5234 3.61253 54.3695L15.5456 54.4576L15.5797 45.6088C13.3589 45.5421 11.1447 45.4308 8.93711 45.2012C8.76213 45.1833 8.60467 45.1412 8.46476 45.0802ZM41.1985 15.7107L41.1985 15.7101L41.1985 15.7093C41.2151 15.0334 41.2317 14.3527 41.2458 13.6628C41.2423 13.3176 41.0936 12.9877 40.8322 12.745C40.5708 12.5024 40.2179 12.3666 39.8506 12.3675L33.3346 12.3424C32.972 12.3454 32.6251 12.4814 32.3677 12.7214C32.1104 12.9613 31.963 13.2863 31.9569 13.627C31.9486 15.7768 31.922 17.9265 31.8771 20.0762C31.8806 20.4169 32.0254 20.743 32.2809 20.9849C32.5364 21.2269 32.8823 21.3655 33.2449 21.3714C35.4138 21.3798 37.5736 21.3881 39.7422 21.4653C40.2299 21.4671 40.5837 21.2719 40.8031 20.988C40.9916 20.7889 41.113 20.5198 41.12 20.1807C41.1257 18.682 41.1618 17.208 41.1985 15.7107ZM38.3943 18.1228L38.3761 18.8741C37.5357 18.8638 36.6961 18.8486 35.8562 18.8333L35.8562 18.8333L35.8542 18.8333C35.4519 18.826 35.0496 18.8187 34.6471 18.8119C34.6698 17.5171 34.6858 16.2223 34.6952 14.9275L38.461 14.942C38.4462 16.0016 38.4204 17.0558 38.3943 18.1218L38.3943 18.1228ZM46.9502 48.5209L41.8253 48.5011L41.8877 32.3431C41.8842 32.0024 41.7393 31.6763 41.4838 31.4344C41.2284 31.1925 40.8825 31.0538 40.5199 31.048L40.4644 31.0471C34.855 30.9569 29.2546 30.8668 23.645 30.8109C23.2824 30.8139 22.9355 30.9499 22.6781 31.1899C22.4208 31.4298 22.2733 31.7548 22.2673 32.0955L22.243 38.3901C22.2464 38.7308 22.3913 39.0569 22.6468 39.2988C22.9023 39.5408 23.2482 39.6794 23.6108 39.6853L32.4691 39.8386L32.4068 55.9807C32.4125 56.3207 32.5581 56.6455 32.8131 56.887C33.0681 57.1285 33.4127 57.2678 33.7745 57.2758L46.9888 57.4988C47.3514 57.4958 47.6983 57.3598 47.9557 57.1198C48.213 56.8799 48.3604 56.5549 48.3665 56.2142L48.318 49.8161C48.3145 49.4754 48.1697 49.1493 47.9142 48.9074C47.6587 48.6654 47.3128 48.5268 46.9502 48.5209ZM39.0751 49.7202C39.075 49.732 39.075 49.7437 39.0752 49.7554L39.0749 49.7804C39.0735 50.1225 39.2169 50.4512 39.4734 50.6941C39.7299 50.937 40.0785 51.0742 40.4426 51.0756L45.5823 51.0955L45.6111 54.8956L35.1572 54.7192L35.2194 38.5778C35.2137 38.2377 35.0681 37.9129 34.8131 37.6714C34.5581 37.4299 34.2135 37.2906 33.8517 37.2826L24.9933 37.1516L25.0079 33.3807C28.7678 33.4058 32.5242 33.472 36.2827 33.5382L36.2832 33.5382C37.2342 33.555 38.1853 33.5717 39.1367 33.5878C39.1293 35.0985 39.1195 36.6086 39.1097 38.1185C39.0846 41.9853 39.0595 45.8508 39.0751 49.7202Z" fill="#0F1222"/>
<path fill-rule="evenodd" clip-rule="evenodd" d="M53.6258 0.244054L40.0265 0.191582C39.6639 0.194637 39.317 0.33063 39.0596 0.570582C38.8023 0.810535 38.6549 1.13548 38.6488 1.47617C38.6354 4.9552 38.5816 8.43407 38.5279 11.9129C38.5189 12.4927 38.5099 13.0725 38.5012 13.6523C38.5044 13.9887 38.6455 14.311 38.8951 14.5522C39.1448 14.7934 39.4837 14.935 39.8415 14.9474L45.3459 14.9686L45.5733 49.797C45.579 50.1371 45.7246 50.4619 45.9796 50.7034C46.2347 50.9448 46.5792 51.0842 46.9411 51.0922L53.6492 51.1181C54.0125 51.1172 54.3608 50.9819 54.6187 50.7415C54.8765 50.5011 55.0232 50.1749 55.0269 49.8335L55.0119 1.53931C55.0132 1.19721 54.8699 0.868564 54.6134 0.62567C54.3569 0.382775 54.0082 0.245529 53.6441 0.244124L53.635 0.244118L53.6258 0.244054ZM41.3587 2.77654L52.2668 2.81862L52.281 48.533L48.3104 48.5177L48.0829 13.6893C48.0795 13.3486 47.9346 13.0225 47.6791 12.7806C47.4236 12.5386 47.0777 12.4 46.7151 12.3941L41.2273 12.3729C41.241 10.7735 41.267 9.17412 41.293 7.57474C41.319 5.97535 41.345 4.37597 41.3587 2.77654ZM8.40568 9.83848L14.9033 9.86355L14.84 26.2709C14.8434 26.6117 14.9883 26.9377 15.2438 27.1797C15.4993 27.4216 15.8452 27.5603 16.2078 27.5661C21.8271 27.5247 27.4492 27.5464 33.0742 27.6312C33.4368 27.6281 33.7837 27.4921 34.0411 27.2522C34.2984 27.0122 34.4458 26.6873 34.4519 26.3466C34.5251 24.3256 34.5789 22.3045 34.621 20.2858C34.6329 20.2205 34.6396 20.154 34.6408 20.087L34.6446 19.0902C34.6576 18.3989 34.6693 17.7078 34.6801 17.0171L34.6519 17.017C34.6415 16.6905 34.4997 16.3791 34.2539 16.1464C33.9974 15.9035 33.6488 15.7663 33.2847 15.7649C32.9206 15.7634 32.5709 15.898 32.3126 16.1389C32.0542 16.3798 31.9083 16.7073 31.907 17.0494C31.9048 17.6139 31.8996 18.1786 31.8919 18.7435L24.268 18.714L24.331 2.37547C24.3276 2.03474 24.1827 1.70867 23.9272 1.46674C23.6718 1.22481 23.3259 1.08614 22.9633 1.08029L8.32072 1.02379C7.9581 1.02685 7.61116 1.16284 7.35381 1.40279C7.09646 1.64274 6.94906 1.96769 6.943 2.30838L7.03792 8.5433C7.04134 8.88403 7.18624 9.2101 7.44172 9.45203C7.69721 9.69396 8.0431 9.83263 8.40568 9.83848ZM22.8851 21.3315L31.8396 21.3661C31.8083 22.6003 31.7685 23.8353 31.7254 25.0704C27.007 24.9914 22.2861 24.973 17.5629 25.0152L17.6252 8.88007C17.6497 8.78395 17.6625 8.68475 17.6629 8.58429C17.6642 8.24219 17.5209 7.91355 17.2644 7.67065C17.0079 7.42776 16.6592 7.29051 16.2952 7.28911L9.7565 7.26388L9.70682 3.65195L21.5804 3.69776L21.5174 20.0363C21.5208 20.3771 21.6657 20.7031 21.9212 20.9451C22.1767 21.187 22.5226 21.3257 22.8851 21.3315ZM15.5845 44.3325L15.6078 38.313C15.6078 38.3044 15.6079 38.2958 15.6081 38.2872C15.608 38.2786 15.6079 38.27 15.608 38.2614C15.6093 37.9193 15.7552 37.5918 16.0136 37.3509C16.2719 37.11 16.6216 36.9754 16.9857 36.9768L23.6204 37.054C23.9823 37.062 24.3268 37.2014 24.5818 37.4429C24.8368 37.6843 24.9825 38.0092 24.9882 38.3492L24.9649 44.3687C24.9566 44.7087 24.8085 45.0324 24.5516 45.2719C24.2947 45.5114 23.9491 45.6481 23.5872 45.6533L16.9523 45.6277C16.5897 45.6218 16.2438 45.4832 15.9884 45.2412C15.7329 44.9993 15.588 44.6732 15.5845 44.3325ZM18.3484 39.5726L18.335 43.0532L22.2244 43.0682L22.2378 39.6178L18.3484 39.5726Z" fill="#0F1222"/>
<path d="M45.3362 13.6787L45.6207 56.178L46.9984 54.8934L33.7841 54.6704L35.1519 55.9656C35.1743 50.1611 35.1967 44.3566 35.2191 38.5521C35.2111 38.2127 35.0648 37.8891 34.8103 37.6481C34.5557 37.407 34.2125 37.267 33.8513 37.2569C28.2325 37.175 22.6045 37.0845 16.9856 37.0284C16.6222 37.0293 16.2739 37.1646 16.0161 37.405C15.7582 37.6454 15.6116 37.9716 15.6079 38.313L15.5406 55.7523L16.9183 54.4677L2.27592 54.3596L3.64368 55.6548C3.25584 39.9509 3.13342 24.2393 3.01101 8.52778L1.63329 9.81237L16.2759 9.86886L14.9081 8.57368L14.8398 26.2709C14.8432 26.6117 14.9881 26.9377 15.2436 27.1797C15.4991 27.4216 15.845 27.5603 16.2076 27.5661C21.8269 27.5247 27.449 27.5464 33.074 27.6312C33.4366 27.6282 33.7835 27.4922 34.0409 27.2522C34.2982 27.0123 34.4456 26.6873 34.4517 26.3466C34.6054 22.0991 34.6767 17.8427 34.7022 13.5947L33.3243 14.9223L46.704 14.9739C47.0681 14.9753 47.4178 14.8408 47.6761 14.5999C47.9345 14.3589 48.0804 14.0314 48.0817 13.6893C48.083 13.3472 47.9397 13.0186 47.6832 12.7757C47.4267 12.5328 47.078 12.3955 46.7139 12.3941L33.3343 12.3425C32.9724 12.3477 32.6268 12.4844 32.3699 12.7239C32.1131 12.9634 31.9649 13.2871 31.9566 13.6271C31.9402 17.8751 31.8597 22.1315 31.706 26.379L33.0838 25.0944C27.465 24.9868 21.8429 24.9651 16.2174 25.0293L17.5851 26.3245L17.6536 8.58427C17.6501 8.24354 17.5053 7.91747 17.2498 7.67554C16.9943 7.43361 16.6484 7.29494 16.2858 7.28909L1.64325 7.23259C1.28135 7.2378 0.935724 7.37449 0.678865 7.61398C0.422006 7.85348 0.273871 8.17718 0.265531 8.51718C0.387944 24.2287 0.510358 39.9403 0.8982 55.6442C0.901626 55.985 1.04652 56.311 1.30201 56.553C1.5575 56.7949 1.90338 56.9336 2.26596 56.9394L16.9083 57.0475C17.2709 57.0445 17.6179 56.9085 17.8752 56.6685C18.1326 56.4286 18.28 56.1036 18.286 55.7629L18.3533 38.3236L16.9756 39.6082C22.5947 39.6299 28.2225 39.7548 33.8414 39.8367L32.4736 38.5415C32.4512 44.346 32.4288 50.1505 32.4064 55.955C32.4122 56.2951 32.5578 56.6199 32.8128 56.8614C33.0678 57.1028 33.4123 57.2422 33.7742 57.2502L46.9884 57.4732C47.3511 57.4701 47.698 57.3341 47.9554 57.0942C48.2127 56.8542 48.3601 56.5293 48.3662 56.1886L48.0817 13.6893C48.083 13.3472 47.9397 13.0186 47.6832 12.7757C47.4267 12.5328 47.078 12.3955 46.7139 12.3941C46.3499 12.3927 46.0002 12.5273 45.7418 12.7682C45.4834 13.0091 45.3375 13.3366 45.3362 13.6787Z" fill="#0F1222"/>
</g>
<defs>
<clipPath id="clip0">
<rect width="54.92" height="57.28" fill="white" transform="translate(0.29834 0.0383301) rotate(0.22107)"/>
</clipPath>
</defs>
</svg>
