<svg xmlns="http://www.w3.org/2000/svg" viewBox="0 0 847.73 847.73"><defs><style>.mail-symbol{fill:#010101;}</style></defs><title>svg</title><g id="smiles"><path class="mail-symbol" d="M650.36,316A118.75,118.75,0,0,0,531.75,197.36H316A118.75,118.75,0,0,0,197.36,316v78.7a20.5,20.5,0,0,0,41,0V329.81L356,434.09,245.81,564.88a77.13,77.13,0,0,1-7.45-33.13,20.5,20.5,0,0,0-41,0,118.11,118.11,0,0,0,30.9,79.75,18.41,18.41,0,0,0,1.76,1.89,118.27,118.27,0,0,0,86,37,20.5,20.5,0,0,0,0-41,77.21,77.21,0,0,1-43-13.06l113.79-135a59.25,59.25,0,0,0,74.29,0l113.76,135a77.18,77.18,0,0,1-43,13.06H390a20.5,20.5,0,0,0,0,41H531.75a118.27,118.27,0,0,0,86-37,20.06,20.06,0,0,0,1.73-1.85,118.18,118.18,0,0,0,30.91-79.78Zm-41,215.77a77.12,77.12,0,0,1-7.44,33.13L491.77,434.13,609.36,330.06ZM411.84,428.8,246.22,282A77.71,77.71,0,0,1,316,238.36H531.75a77.72,77.72,0,0,1,69.85,43.81L435.92,428.81A18.17,18.17,0,0,1,411.84,428.8Z"/><path class="mail-symbol" d="M198.26,468.82a18.36,18.36,0,0,0,.68,1.88,20.07,20.07,0,0,0,.85,1.82c.32.59.66,1.17,1,1.72a17.39,17.39,0,0,0,1.2,1.62,19.2,19.2,0,0,0,2.85,2.85,17.39,17.39,0,0,0,1.62,1.2c.55.37,1.13.71,1.72,1a20.07,20.07,0,0,0,1.82.85,18.36,18.36,0,0,0,1.88.68,19.17,19.17,0,0,0,2,.49,20.28,20.28,0,0,0,6,.3,20.46,20.46,0,0,0,5.83-1.47c.61-.25,1.22-.54,1.81-.85s1.17-.66,1.73-1a18.68,18.68,0,0,0,1.61-1.2,17.58,17.58,0,0,0,1.5-1.35c.47-.47.93-1,1.36-1.5a19.28,19.28,0,0,0,1.19-1.62c.37-.55.71-1.13,1-1.72s.6-1.2.86-1.82.48-1.25.67-1.88.36-1.3.5-1.95.23-1.33.3-2,.1-1.35.1-2a20.52,20.52,0,0,0-22.52-20.4c-.66.07-1.33.17-2,.3s-1.31.3-2,.5-1.27.42-1.88.67-1.23.55-1.82.86-1.17.66-1.72,1a19.28,19.28,0,0,0-1.62,1.19c-.52.43-1,.89-1.5,1.36a17.58,17.58,0,0,0-1.35,1.5,18.68,18.68,0,0,0-1.2,1.61c-.37.56-.71,1.14-1,1.73s-.6,1.2-.85,1.81a20.27,20.27,0,0,0-1.17,3.84c-.13.65-.23,1.32-.3,2a20.35,20.35,0,0,0,0,4c.07.66.17,1.33.3,2A19.17,19.17,0,0,0,198.26,468.82Z"/></g></svg>